<svg xmlns="http://www.w3.org/2000/svg" viewBox="0 0 512 512" width="512" height="512" preserveAspectRatio="xMidYMid meet" style="width: 100%; height: 100%; transform: translate3d(0px, 0px, 0px);"><defs><clipPath id="__lottie_element_2"><rect width="512" height="512" x="0" y="0"/></clipPath><clipPath id="__lottie_element_10"><path d="M0,0 L298,0 L298,272 L0,272z"/></clipPath><clipPath id="__lottie_element_15"><path d="M0,0 L289,0 L289,200 L0,200z"/></clipPath><clipPath id="__lottie_element_19"><path d="M0,0 L289,0 L289,200 L0,200z"/></clipPath><clipPath id="__lottie_element_72"><path d="M0,0 L298,0 L298,272 L0,272z"/></clipPath><clipPath id="__lottie_element_76"><path d="M0,0 L289,0 L289,200 L0,200z"/></clipPath><clipPath id="__lottie_element_119"><path d="M0,0 L298,0 L298,272 L0,272z"/></clipPath><clipPath id="__lottie_element_123"><path d="M0,0 L289,0 L289,200 L0,200z"/></clipPath><clipPath id="__lottie_element_127"><path d="M0,0 L289,0 L289,200 L0,200z"/></clipPath><clipPath id="__lottie_element_176"><path d="M0,0 L298,0 L298,272 L0,272z"/></clipPath><clipPath id="__lottie_element_180"><path d="M0,0 L298,0 L298,272 L0,272z"/></clipPath><clipPath id="__lottie_element_184"><path d="M0,0 L289,0 L289,200 L0,200z"/></clipPath><clipPath id="__lottie_element_188"><path d="M0,0 L289,0 L289,200 L0,200z"/></clipPath><clipPath id="__lottie_element_192"><path d="M0,0 L289,0 L289,200 L0,200z"/></clipPath><clipPath id="__lottie_element_277"><path d="M0,0 L512,0 L512,512 L0,512z"/></clipPath><clipPath id="__lottie_element_281"><path d="M0,0 L289,0 L289,200 L0,200z"/></clipPath><clipPath id="__lottie_element_359"><path d="M0,0 L38,0 L38,39 L0,39z"/></clipPath><clipPath id="__lottie_element_363"><path d="M0,0 L38,0 L38,39 L0,39z"/></clipPath><clipPath id="__lottie_element_367"><path d="M0,0 L38,0 L38,39 L0,39z"/></clipPath><clipPath id="__lottie_element_371"><path d="M0,0 L38,0 L38,39 L0,39z"/></clipPath><clipPath id="__lottie_element_375"><path d="M0,0 L38,0 L38,39 L0,39z"/></clipPath><clipPath id="__lottie_element_379"><path d="M0,0 L38,0 L38,39 L0,39z"/></clipPath></defs><g clip-path="url(#__lottie_element_2)"><g transform="matrix(0.9764999747276306,0,0,0.9764999747276306,257.0314636230469,521.2530517578125)" opacity="0.15" style="display: block;"><g opacity="1" transform="matrix(1,0,0,0.5,0,-49)"><g opacity="1" transform="matrix(1,0,0,1,0,0)"><g opacity="1" transform="matrix(0.7076780200004578,0.7065351009368896,-0.7065351009368896,0.7076780200004578,-1,-98)"><path fill="rgb(25,25,25)" fill-opacity="1" d=" M120,-70 C120,-70 120,70 120,70 C120,97.61399841308594 97.61399841308594,120 70,120 C70,120 -70,120 -70,120 C-97.61399841308594,120 -120,97.61399841308594 -120,70 C-120,70 -120,-70 -120,-70 C-120,-97.61399841308594 -97.61399841308594,-120 -70,-120 C-70,-120 70,-120 70,-120 C97.61399841308594,-120 120,-97.61399841308594 120,-70z"/></g></g></g></g><g transform="matrix(1.0196646451950073,0.25056689977645874,-0.25056689977645874,1.0196646451950073,267.67901611328125,135.8486785888672)" opacity="1" style="display: block;"><g opacity="1" transform="matrix(1,0,0,1,0,0)"><path stroke-linecap="round" stroke-linejoin="round" fill-opacity="0" stroke="rgb(249,248,254)" stroke-opacity="1" stroke-width="64" d=" M-63.45600128173828,167.19900512695312 C-63.45600128173828,167.19900512695312 53.81399917602539,174.60699462890625 53.81399917602539,174.60699462890625 C53.81399917602539,174.60699462890625 -63.45600128173828,167.19900512695312 -63.45600128173828,167.19900512695312z"/></g></g><g transform="matrix(1.0196646451950073,0.25056689977645874,-0.25056689977645874,1.0196646451950073,267.67901611328125,135.8486785888672)" opacity="1" style="display: block;"><g opacity="1" transform="matrix(1,0,0,1,0,0)"><path stroke-linecap="round" stroke-linejoin="round" fill-opacity="0" stroke="rgb(249,248,254)" stroke-opacity="1" stroke-width="38" d=" M63.06700134277344,285.58099365234375 C63.06700134277344,285.58099365234375 66.39199829101562,303.29998779296875 66.39199829101562,303.29998779296875 C66.39199829101562,303.29998779296875 63.06700134277344,285.58099365234375 63.06700134277344,285.58099365234375z"/></g></g><g clip-path="url(#__lottie_element_277)" transform="matrix(1.0499999523162842,0,0,1.0499999523162842,-12.79998779296875,-2.79998779296875)" opacity="1" style="display: block;"><g transform="matrix(1,0,0,1,256,256)" opacity="1" style="display: none;"><g opacity="1" transform="matrix(1,0,0,1,0,0)"><path fill="rgb(195,198,213)" fill-opacity="1" d=" M38.38999938964844,168.4429931640625 C38.38999938964844,168.4429931640625 -69.85399627685547,139.30799865722656 -69.85399627685547,139.30799865722656 C-85.7959976196289,135.01699829101562 -94.83200073242188,118.88800048828125 -90.04900360107422,103.25800323486328 C-90.04900360107422,103.25800323486328 -57.57600021362305,-2.867000102996826 -57.57600021362305,-2.867000102996826 C-52.792999267578125,-18.496999740600586 -36.013999938964844,-27.677000045776367 -20.07200050354004,-23.38599967956543 C-20.07200050354004,-23.38599967956543 88.1719970703125,5.749000072479248 88.1719970703125,5.749000072479248 C104.11399841308594,10.039999961853027 113.1500015258789,26.16900062561035 108.36699676513672,41.79899978637695 C108.36699676513672,41.79899978637695 75.89399719238281,147.9239959716797 75.89399719238281,147.9239959716797 C71.11100006103516,163.5540008544922 54.332000732421875,172.73399353027344 38.38999938964844,168.4429931640625z"/><path stroke-linecap="round" stroke-linejoin="round" fill-opacity="0" stroke="rgb(249,248,254)" stroke-opacity="1" stroke-width="7" d=" M38.38999938964844,168.4429931640625 C38.38999938964844,168.4429931640625 -69.85399627685547,139.30799865722656 -69.85399627685547,139.30799865722656 C-85.7959976196289,135.01699829101562 -94.83200073242188,118.88800048828125 -90.04900360107422,103.25800323486328 C-90.04900360107422,103.25800323486328 -57.57600021362305,-2.867000102996826 -57.57600021362305,-2.867000102996826 C-52.792999267578125,-18.496999740600586 -36.013999938964844,-27.677000045776367 -20.07200050354004,-23.38599967956543 C-20.07200050354004,-23.38599967956543 88.1719970703125,5.749000072479248 88.1719970703125,5.749000072479248 C104.11399841308594,10.039999961853027 113.1500015258789,26.16900062561035 108.36699676513672,41.79899978637695 C108.36699676513672,41.79899978637695 75.89399719238281,147.9239959716797 75.89399719238281,147.9239959716797 C71.11100006103516,163.5540008544922 54.332000732421875,172.73399353027344 38.38999938964844,168.4429931640625z"/></g></g><g transform="matrix(1,0,0,1,256.5,256.5)" opacity="1" style="display: none;"><g opacity="1" transform="matrix(1,0,0,1,0,0)"><path fill="rgb(25,25,25)" fill-opacity="1" d=" M-1.253999948501587,28.309999465942383 C-4.239999771118164,38.06800079345703 -14.784000396728516,43.83700180053711 -24.736000061035156,41.15800094604492 C-34.6879997253418,38.479000091552734 -40.310001373291016,28.358999252319336 -37.32400131225586,18.60099983215332 C-34.3380012512207,8.843000411987305 -23.867000579833984,3.114000082015991 -13.914999961853027,5.793000221252441 C-3.9630000591278076,8.472000122070312 1.7319999933242798,18.552000045776367 -1.253999948501587,28.309999465942383z"/></g><g opacity="1" transform="matrix(1,0,0,1,0,0)"><path fill="rgb(25,25,25)" fill-opacity="1" d=" M54.104000091552734,127.21499633789062 C51.11800003051758,136.97300720214844 40.64699935913086,142.7010040283203 30.69499969482422,140.02200317382812 C20.743000030517578,137.34300231933594 15.04800033569336,127.26399993896484 18.034000396728516,117.50599670410156 C21.020000457763672,107.74800109863281 31.56399917602539,101.97899627685547 41.51599884033203,104.65799713134766 C51.46799850463867,107.33699798583984 57.09000015258789,117.45700073242188 54.104000091552734,127.21499633789062z"/></g></g><g transform="matrix(1,0,0,1,256,256)" opacity="1" style="display: none;"><g opacity="1" transform="matrix(1,0,0,1,0,0)"><path fill="rgb(226,231,246)" fill-opacity="1" d=" M-78.86199951171875,181.77099609375 C-78.86199951171875,181.77099609375 -94.125,125.53700256347656 -94.125,125.53700256347656 C-96.37300109863281,117.25499725341797 -98.19300079345703,98.8290023803711 -98.19300079345703,84.35199737548828 C-98.19300079345703,84.35199737548828 -98.19300079345703,-13.942000389099121 -98.19300079345703,-13.942000389099121 C-98.19300079345703,-28.41900062561035 -96.37300109863281,-33.433998107910156 -94.125,-25.152000427246094 C-94.125,-25.152000427246094 -78.86199951171875,31.08300018310547 -78.86199951171875,31.08300018310547 C-76.61399841308594,39.3650016784668 -74.79399871826172,57.79100036621094 -74.79399871826172,72.26799774169922 C-74.79399871826172,72.26799774169922 -74.79399871826172,170.56199645996094 -74.79399871826172,170.56199645996094 C-74.79399871826172,185.03900146484375 -76.61399841308594,190.05299377441406 -78.86199951171875,181.77099609375z"/><path stroke-linecap="round" stroke-linejoin="round" fill-opacity="0" stroke="rgb(249,248,254)" stroke-opacity="1" stroke-width="7" d=" M-78.86199951171875,181.77099609375 C-78.86199951171875,181.77099609375 -94.125,125.53700256347656 -94.125,125.53700256347656 C-96.37300109863281,117.25499725341797 -98.19300079345703,98.8290023803711 -98.19300079345703,84.35199737548828 C-98.19300079345703,84.35199737548828 -98.19300079345703,-13.942000389099121 -98.19300079345703,-13.942000389099121 C-98.19300079345703,-28.41900062561035 -96.37300109863281,-33.433998107910156 -94.125,-25.152000427246094 C-94.125,-25.152000427246094 -78.86199951171875,31.08300018310547 -78.86199951171875,31.08300018310547 C-76.61399841308594,39.3650016784668 -74.79399871826172,57.79100036621094 -74.79399871826172,72.26799774169922 C-74.79399871826172,72.26799774169922 -74.79399871826172,170.56199645996094 -74.79399871826172,170.56199645996094 C-74.79399871826172,185.03900146484375 -76.61399841308594,190.05299377441406 -78.86199951171875,181.77099609375z"/></g></g><g transform="matrix(1,0,0,1,256.5,256.5)" opacity="1" style="display: none;"><g opacity="1" transform="matrix(1,0,0,1,0,0)"><path fill="rgb(25,25,25)" fill-opacity="1" d=" M-84.88500213623047,122.95649719238281 C-84.54199981689453,113.76750183105469 -83.0979995727539,110.28949737548828 -81.66899871826172,115.21199798583984 C-80.23999786376953,120.1344985961914 -79.36250305175781,131.60699462890625 -79.70549774169922,140.79600524902344 C-80.04850006103516,149.98500061035156 -81.48300170898438,153.43899536132812 -82.91200256347656,148.51649475097656 C-84.34100341796875,143.593994140625 -85.22799682617188,132.14549255371094 -84.88500213623047,122.95649719238281z"/></g><g opacity="1" transform="matrix(1,0,0,1,0,0)"><path fill="rgb(25,25,25)" fill-opacity="1" d=" M-93.5165023803711,10.738499641418457 C-93.17350006103516,1.5494999885559082 -91.73899841308594,-1.9045000076293945 -90.30999755859375,3.0179998874664307 C-88.88099670410156,7.940499782562256 -87.99349975585938,19.38949966430664 -88.33650207519531,28.578500747680664 C-88.67949676513672,37.76750183105469 -90.1240005493164,41.24599838256836 -91.5530014038086,36.32350158691406 C-92.98200225830078,31.400999069213867 -93.8594970703125,19.927499771118164 -93.5165023803711,10.738499641418457z"/></g><g opacity="1" transform="matrix(1,0,0,1,0,0)"><path fill="rgb(25,25,25)" fill-opacity="1" d=" M-93.03600311279297,76.05950164794922 C-91.60700225830078,80.98200225830078 -90.72149658203125,92.4834976196289 -91.06449890136719,101.67250061035156 C-91.40750122070312,110.86150360107422 -92.8499984741211,114.2874984741211 -94.27899932861328,109.36499786376953 C-95.70800018310547,104.44249725341797 -96.5875015258789,93.02200317382812 -96.24449920654297,83.83300018310547 C-95.90149688720703,74.64399719238281 -94.46499633789062,71.13700103759766 -93.03600311279297,76.05950164794922z"/></g><g opacity="1" transform="matrix(1,0,0,1,0,0)"><path fill="rgb(25,25,25)" fill-opacity="1" d=" M-78.94300079345703,42.170501708984375 C-77.51399993896484,47.09299850463867 -76.6344985961914,58.51350021362305 -76.97750091552734,67.70249938964844 C-77.32050323486328,76.8915023803711 -78.75700378417969,80.39749908447266 -80.18599700927734,75.4749984741211 C-81.61499786376953,70.55249786376953 -82.5,59.051998138427734 -82.15699768066406,49.862998962402344 C-81.81400299072266,40.67399978637695 -80.37200164794922,37.24800109863281 -78.94300079345703,42.170501708984375z"/></g></g><g transform="matrix(1,0,0,1,256,256)" opacity="1" style="display: block;"><g opacity="1" transform="matrix(1,0,0,1,0,0)"><path fill="rgb(193,194,211)" fill-opacity="1" d=" M103.0790023803711,158.74400329589844 C103.0790023803711,158.74400329589844 22.886999130249023,198.90499877929688 22.886999130249023,198.90499877929688 C11.076000213623047,204.82000732421875 1.5140000581741333,197.88800048828125 1.5140000581741333,183.41099548339844 C1.5140000581741333,183.41099548339844 1.5140000581741333,85.11699676513672 1.5140000581741333,85.11699676513672 C1.5140000581741333,70.63999938964844 11.076000213623047,54.13100051879883 22.886999130249023,48.215999603271484 C22.886999130249023,48.215999603271484 103.0790023803711,8.055999755859375 103.0790023803711,8.055999755859375 C114.88999938964844,2.1410000324249268 124.45099639892578,9.071999549865723 124.45099639892578,23.548999786376953 C124.45099639892578,23.548999786376953 124.45099639892578,121.84300231933594 124.45099639892578,121.84300231933594 C124.45099639892578,136.32000732421875 114.88999938964844,152.82899475097656 103.0790023803711,158.74400329589844z"/><path stroke-linecap="round" stroke-linejoin="round" fill-opacity="0" stroke="rgb(249,248,254)" stroke-opacity="1" stroke-width="7" d=" M103.0790023803711,158.74400329589844 C103.0790023803711,158.74400329589844 22.886999130249023,198.90499877929688 22.886999130249023,198.90499877929688 C11.076000213623047,204.82000732421875 1.5140000581741333,197.88800048828125 1.5140000581741333,183.41099548339844 C1.5140000581741333,183.41099548339844 1.5140000581741333,85.11699676513672 1.5140000581741333,85.11699676513672 C1.5140000581741333,70.63999938964844 11.076000213623047,54.13100051879883 22.886999130249023,48.215999603271484 C22.886999130249023,48.215999603271484 103.0790023803711,8.055999755859375 103.0790023803711,8.055999755859375 C114.88999938964844,2.1410000324249268 124.45099639892578,9.071999549865723 124.45099639892578,23.548999786376953 C124.45099639892578,23.548999786376953 124.45099639892578,121.84300231933594 124.45099639892578,121.84300231933594 C124.45099639892578,136.32000732421875 114.88999938964844,152.82899475097656 103.0790023803711,158.74400329589844z"/></g></g><g transform="matrix(1,0,0,1,256.5,256.5)" opacity="1" style="display: block;"><g opacity="1" transform="matrix(1,0,0,1,0,0)"><path fill="rgb(25,25,25)" fill-opacity="1" d=" M33.159000396728516,138.1230010986328 C40.53200149536133,134.42999267578125 46.54199981689453,138.78700256347656 46.54199981689453,147.82400512695312 C46.54199981689453,156.86099243164062 40.53200149536133,167.1840057373047 33.159000396728516,170.8769989013672 C25.785999298095703,174.57000732421875 19.819000244140625,170.24400329589844 19.819000244140625,161.20700073242188 C19.819000244140625,152.1699981689453 25.785999298095703,141.8159942626953 33.159000396728516,138.1230010986328z"/></g><g opacity="1" transform="matrix(1,0,0,1,0,0)"><path fill="rgb(25,25,25)" fill-opacity="1" d=" M91.80599975585938,36.917999267578125 C99.17900085449219,33.224998474121094 105.14600372314453,37.55099868774414 105.14600372314453,46.5880012512207 C105.14600372314453,55.625 99.17900085449219,65.97899627685547 91.80599975585938,69.6719970703125 C84.43299865722656,73.36499786376953 78.42400360107422,69.00800323486328 78.42400360107422,59.97100067138672 C78.42400360107422,50.933998107910156 84.43299865722656,40.611000061035156 91.80599975585938,36.917999267578125z"/></g><g opacity="1" transform="matrix(1,0,0,1,0,0)"><path fill="rgb(25,25,25)" fill-opacity="1" d=" M49.310001373291016,110.69999694824219 C49.310001373291016,101.66300201416016 55.27799987792969,91.36100006103516 62.6510009765625,87.66799926757812 C70.02400207519531,83.9749984741211 76.03299713134766,88.27999877929688 76.03299713134766,97.31700134277344 C76.03299713134766,106.35399627685547 70.02400207519531,116.72899627685547 62.6510009765625,120.4219970703125 C55.27799987792969,124.11499786376953 49.310001373291016,119.73699951171875 49.310001373291016,110.69999694824219z"/></g></g><g transform="matrix(1,0,0,1,256,256)" opacity="1" style="display: block;"><g opacity="1" transform="matrix(1,0,0,1,0,0)"><path fill="rgb(216,221,235)" fill-opacity="1" d=" M-101.62899780273438,158.82699584960938 C-101.62899780273438,158.82699584960938 -21.30699920654297,198.92300415039062 -21.30699920654297,198.92300415039062 C-9.47700023651123,204.8280029296875 0.10000000149011612,197.88900756835938 0.10000000149011612,183.41200256347656 C0.10000000149011612,183.41200256347656 0.10000000149011612,85.11799621582031 0.10000000149011612,85.11799621582031 C0.10000000149011612,70.64099884033203 -9.47700023651123,54.138999938964844 -21.30699920654297,48.23400115966797 C-21.30699920654297,48.23400115966797 -101.62899780273438,8.137999534606934 -101.62899780273438,8.137999534606934 C-113.45899963378906,2.2330000400543213 -123.03600311279297,9.17199993133545 -123.03600311279297,23.64900016784668 C-123.03600311279297,23.64900016784668 -123.03600311279297,121.94300079345703 -123.03600311279297,121.94300079345703 C-123.03600311279297,136.4199981689453 -113.45899963378906,152.9219970703125 -101.62899780273438,158.82699584960938z"/><path stroke-linecap="round" stroke-linejoin="round" fill-opacity="0" stroke="rgb(249,248,254)" stroke-opacity="1" stroke-width="7" d=" M-101.62899780273438,158.82699584960938 C-101.62899780273438,158.82699584960938 -21.30699920654297,198.92300415039062 -21.30699920654297,198.92300415039062 C-9.47700023651123,204.8280029296875 0.10000000149011612,197.88900756835938 0.10000000149011612,183.41200256347656 C0.10000000149011612,183.41200256347656 0.10000000149011612,85.11799621582031 0.10000000149011612,85.11799621582031 C0.10000000149011612,70.64099884033203 -9.47700023651123,54.138999938964844 -21.30699920654297,48.23400115966797 C-21.30699920654297,48.23400115966797 -101.62899780273438,8.137999534606934 -101.62899780273438,8.137999534606934 C-113.45899963378906,2.2330000400543213 -123.03600311279297,9.17199993133545 -123.03600311279297,23.64900016784668 C-123.03600311279297,23.64900016784668 -123.03600311279297,121.94300079345703 -123.03600311279297,121.94300079345703 C-123.03600311279297,136.4199981689453 -113.45899963378906,152.9219970703125 -101.62899780273438,158.82699584960938z"/></g></g><g transform="matrix(1,0,0,1,256.5,256.5)" opacity="1" style="display: block;"><g opacity="1" transform="matrix(1,0,0,1,0,0)"><path fill="rgb(25,25,25)" fill-opacity="1" d=" M-46.000999450683594,75.87300109863281 C-46.000999450683594,84.91000366210938 -39.981998443603516,95.27999877929688 -32.59700012207031,98.96700286865234 C-25.211999893188477,102.65399932861328 -19.235000610351562,98.27100372314453 -19.235000610351562,89.23400115966797 C-19.235000610351562,80.1969985961914 -25.211999893188477,69.89900207519531 -32.59700012207031,66.21199798583984 C-39.981998443603516,62.525001525878906 -46.000999450683594,66.83599853515625 -46.000999450683594,75.87300109863281z"/></g><g opacity="1" transform="matrix(1,0,0,1,0,0)"><path fill="rgb(25,25,25)" fill-opacity="1" d=" M-104.70099639892578,118.45600128173828 C-104.70099639892578,127.49299621582031 -98.7239990234375,137.79100036621094 -91.33899688720703,141.47799682617188 C-83.9540023803711,145.1649932861328 -77.93499755859375,140.85400390625 -77.93499755859375,131.81700134277344 C-77.93499755859375,122.77999877929688 -83.9540023803711,112.41000366210938 -91.33899688720703,108.7229995727539 C-98.7239990234375,105.03600311279297 -104.70099639892578,109.41899871826172 -104.70099639892578,118.45600128173828z"/></g><g opacity="1" transform="matrix(1,0,0,1,0,0)"><path fill="rgb(25,25,25)" fill-opacity="1" d=" M-91.33899688720703,69.64399719238281 C-83.9540023803711,73.33100128173828 -77.93499755859375,68.96900177001953 -77.93499755859375,59.93199920654297 C-77.93499755859375,50.89500045776367 -83.9540023803711,40.57600021362305 -91.33899688720703,36.888999938964844 C-98.7239990234375,33.20199966430664 -104.70099639892578,37.53300094604492 -104.70099639892578,46.56999969482422 C-104.70099639892578,55.606998443603516 -98.7239990234375,65.95700073242188 -91.33899688720703,69.64399719238281z"/></g><g opacity="1" transform="matrix(1,0,0,1,0,0)"><path fill="rgb(25,25,25)" fill-opacity="1" d=" M-32.59700012207031,170.80099487304688 C-25.211999893188477,174.48800659179688 -19.235000610351562,170.15699768066406 -19.235000610351562,161.1199951171875 C-19.235000610351562,152.08299255371094 -25.211999893188477,141.73300170898438 -32.59700012207031,138.04600524902344 C-39.981998443603516,134.35899353027344 -46.000999450683594,138.7209930419922 -46.000999450683594,147.75799560546875 C-46.000999450683594,156.7949981689453 -39.981998443603516,167.11399841308594 -32.59700012207031,170.80099487304688z"/></g><g opacity="1" transform="matrix(1,0,0,1,0,0)"><path fill="rgb(25,25,25)" fill-opacity="1" d=" M-75.16200256347656,97.0530014038086 C-75.16200256347656,106.08999633789062 -69.18499755859375,116.38800048828125 -61.79999923706055,120.07499694824219 C-54.415000915527344,123.76200103759766 -48.395999908447266,119.45099639892578 -48.395999908447266,110.41400146484375 C-48.395999908447266,101.37699890136719 -54.415000915527344,91.00700378417969 -61.79999923706055,87.31999969482422 C-69.18499755859375,83.63300323486328 -75.16200256347656,88.01599884033203 -75.16200256347656,97.0530014038086z"/></g></g><g transform="matrix(1,0,0,1,256,256)" opacity="1" style="display: block;"><g opacity="1" transform="matrix(1,0,0,1,0,0)"><path fill="rgb(242,241,248)" fill-opacity="1" d=" M21.308000564575195,-53.43000030517578 C21.308000564575195,-53.43000030517578 101.62999725341797,-13.333999633789062 101.62999725341797,-13.333999633789062 C113.45999908447266,-7.428999900817871 113.4749984741211,2.1410000324249268 101.66400146484375,8.055999755859375 C101.66400146484375,8.055999755859375 21.472999572753906,48.21699905395508 21.472999572753906,48.21699905395508 C9.661999702453613,54.13199996948242 -9.47700023651123,54.138999938964844 -21.30699920654297,48.23400115966797 C-21.30699920654297,48.23400115966797 -101.62899780273438,8.137999534606934 -101.62899780273438,8.137999534606934 C-113.45899963378906,2.2330000400543213 -113.4739990234375,-7.336999893188477 -101.66300201416016,-13.251999855041504 C-101.66300201416016,-13.251999855041504 -21.472000122070312,-53.4119987487793 -21.472000122070312,-53.4119987487793 C-9.66100025177002,-59.32699966430664 9.477999687194824,-59.334999084472656 21.308000564575195,-53.43000030517578z"/><path stroke-linecap="round" stroke-linejoin="round" fill-opacity="0" stroke="rgb(249,248,254)" stroke-opacity="1" stroke-width="7" d=" M21.308000564575195,-53.43000030517578 C21.308000564575195,-53.43000030517578 101.62999725341797,-13.333999633789062 101.62999725341797,-13.333999633789062 C113.45999908447266,-7.428999900817871 113.4749984741211,2.1410000324249268 101.66400146484375,8.055999755859375 C101.66400146484375,8.055999755859375 21.472999572753906,48.21699905395508 21.472999572753906,48.21699905395508 C9.661999702453613,54.13199996948242 -9.47700023651123,54.138999938964844 -21.30699920654297,48.23400115966797 C-21.30699920654297,48.23400115966797 -101.62899780273438,8.137999534606934 -101.62899780273438,8.137999534606934 C-113.45899963378906,2.2330000400543213 -113.4739990234375,-7.336999893188477 -101.66300201416016,-13.251999855041504 C-101.66300201416016,-13.251999855041504 -21.472000122070312,-53.4119987487793 -21.472000122070312,-53.4119987487793 C-9.66100025177002,-59.32699966430664 9.477999687194824,-59.334999084472656 21.308000564575195,-53.43000030517578z"/></g></g><g transform="matrix(1,0,0,1,256.5,256.5)" opacity="1" style="display: none;"><g opacity="1" transform="matrix(1,0,0,1,0,0)"><path fill="rgb(25,25,25)" fill-opacity="1" d=" M-24.851499557495117,-23.578500747680664 C-23.422500610351562,-18.6560001373291 -30.648000717163086,-14.359000205993652 -40.94350051879883,-14.008500099182129 C-51.23899841308594,-13.657999992370605 -60.73550033569336,-17.385499954223633 -62.16450119018555,-22.308000564575195 C-63.59349822998047,-27.230499267578125 -56.41899871826172,-31.497499465942383 -46.12350082397461,-31.847999572753906 C-35.827999114990234,-32.19850158691406 -26.280500411987305,-28.500999450683594 -24.851499557495117,-23.578500747680664z"/></g><g opacity="1" transform="matrix(1,0,0,1,0,0)"><path fill="rgb(25,25,25)" fill-opacity="1" d=" M68.34649658203125,12.786999702453613 C69.77549743652344,17.70949935913086 62.599998474121094,21.976499557495117 52.304500579833984,22.32699966430664 C42.00899887084961,22.677499771118164 32.462501525878906,18.97949981689453 31.03350067138672,14.057000160217285 C29.60449981689453,9.134499549865723 36.83000183105469,4.8379998207092285 47.1254997253418,4.487500190734863 C57.42100143432617,4.13700008392334 66.9175033569336,7.864500045776367 68.34649658203125,12.786999702453613z"/></g><g opacity="1" transform="matrix(1,0,0,1,0,0)"><path fill="rgb(25,25,25)" fill-opacity="1" d=" M40.945499420166016,-16.797000885009766 C30.649999618530273,-16.446500778198242 21.094999313354492,-20.172000885009766 19.666000366210938,-25.094499588012695 C18.23699951171875,-30.017000198364258 25.47100067138672,-34.2864990234375 35.76649856567383,-34.637001037597656 C46.0620002746582,-34.98749923706055 55.54999923706055,-31.288000106811523 56.979000091552734,-26.36549949645996 C58.40800094604492,-21.44300079345703 51.24100112915039,-17.147499084472656 40.945499420166016,-16.797000885009766z"/></g><g opacity="1" transform="matrix(1,0,0,1,0,0)"><path fill="rgb(25,25,25)" fill-opacity="1" d=" M-29.58449935913086,25.115999221801758 C-39.880001068115234,25.46649932861328 -49.368499755859375,21.76650047302246 -50.79750061035156,16.8439998626709 C-52.22650146484375,11.921500205993652 -45.05950164794922,7.626500129699707 -34.763999938964844,7.276000022888184 C-24.4685001373291,6.92549991607666 -14.91349983215332,10.651000022888184 -13.48449993133545,15.57349967956543 C-12.055500030517578,20.496000289916992 -19.288999557495117,24.765499114990234 -29.58449935913086,25.115999221801758z"/></g><g opacity="1" transform="matrix(1,0,0,1,0,0)"><path fill="rgb(25,25,25)" fill-opacity="1" d=" M-0.2329999953508377,-15.395000457763672 C-10.528499603271484,-15.044500350952148 -20.083499908447266,-18.770000457763672 -21.512500762939453,-23.6924991607666 C-22.941499710083008,-28.614999771118164 -15.708000183105469,-32.88399887084961 -5.412499904632568,-33.234500885009766 C4.882999897003174,-33.584999084472656 14.371500015258789,-29.885499954223633 15.80049991607666,-24.96299934387207 C17.229999542236328,-20.04050064086914 10.0625,-15.745499610900879 -0.2329999953508377,-15.395000457763672z"/></g><g opacity="1" transform="matrix(1,0,0,1,0,0)"><path fill="rgb(25,25,25)" fill-opacity="1" d=" M11.199000358581543,23.98150062561035 C0.9035000205039978,24.332000732421875 -8.65149974822998,20.60650062561035 -10.080499649047852,15.684000015258789 C-11.509499549865723,10.761500358581543 -4.26800012588501,6.519999980926514 6.027500152587891,6.16949987411499 C16.322999954223633,5.818999767303467 25.803499221801758,9.490500450134277 27.232500076293945,14.413000106811523 C28.661500930786133,19.335500717163086 21.49449920654297,23.631000518798828 11.199000358581543,23.98150062561035z"/></g></g><g transform="matrix(1,0,0,1,256,256)" opacity="1" style="display: none;"><g opacity="1" transform="matrix(1,0,0,1,0,0)"><path fill="rgb(242,241,248)" fill-opacity="1" d=" M105.17449951171875,-46.154998779296875 C105.17449951171875,-46.154998779296875 56.11899948120117,-5.951000213623047 56.11899948120117,-5.951000213623047 C48.89400100708008,-0.029999999329447746 31.272499084472656,1.8350000381469727 16.732500076293945,-1.7829999923706055 C16.732500076293945,-1.7829999923706055 -81.99099731445312,-26.349000930786133 -81.99099731445312,-26.349000930786133 C-96.53099822998047,-29.966999053955078 -102.45349884033203,-37.689998626708984 -95.22850036621094,-43.611000061035156 C-95.22850036621094,-43.611000061035156 -46.172000885009766,-83.81549835205078 -46.172000885009766,-83.81549835205078 C-38.946998596191406,-89.73650360107422 -21.326000213623047,-91.60150146484375 -6.785999774932861,-87.9834976196289 C-6.785999774932861,-87.9834976196289 91.93699645996094,-63.417999267578125 91.93699645996094,-63.417999267578125 C106.47699737548828,-59.79999923706055 112.39949798583984,-52.07600021362305 105.17449951171875,-46.154998779296875z"/><path stroke-linecap="round" stroke-linejoin="round" fill-opacity="0" stroke="rgb(249,248,254)" stroke-opacity="1" stroke-width="7" d=" M105.17449951171875,-46.154998779296875 C105.17449951171875,-46.154998779296875 56.11899948120117,-5.951000213623047 56.11899948120117,-5.951000213623047 C48.89400100708008,-0.029999999329447746 31.272499084472656,1.8350000381469727 16.732500076293945,-1.7829999923706055 C16.732500076293945,-1.7829999923706055 -81.99099731445312,-26.349000930786133 -81.99099731445312,-26.349000930786133 C-96.53099822998047,-29.966999053955078 -102.45349884033203,-37.689998626708984 -95.22850036621094,-43.611000061035156 C-95.22850036621094,-43.611000061035156 -46.172000885009766,-83.81549835205078 -46.172000885009766,-83.81549835205078 C-38.946998596191406,-89.73650360107422 -21.326000213623047,-91.60150146484375 -6.785999774932861,-87.9834976196289 C-6.785999774932861,-87.9834976196289 91.93699645996094,-63.417999267578125 91.93699645996094,-63.417999267578125 C106.47699737548828,-59.79999923706055 112.39949798583984,-52.07600021362305 105.17449951171875,-46.154998779296875z"/></g></g><g transform="matrix(1,0,0,1,256.5,256.5)" opacity="1" style="display: none;"><g opacity="1" transform="matrix(1,0,0,1,0,0)"><path fill="rgb(231,37,37)" fill-opacity="1" d=" M-2.4570000171661377,-38.49850082397461 C-11.534000396728516,-40.75699996948242 -15.229499816894531,-45.576499938964844 -10.718999862670898,-49.27299880981445 C-6.208499908447266,-52.96950149536133 4.813499927520752,-54.15449905395508 13.89050006866455,-51.895999908447266 C22.967500686645508,-49.63750076293945 26.68899917602539,-44.78350067138672 22.178499221801758,-41.08700180053711 C17.667999267578125,-37.390499114990234 6.619999885559082,-36.2400016784668 -2.4570000171661377,-38.49850082397461z"/></g></g><g transform="matrix(1,0,0,1,256,256)" opacity="1" style="display: none;"><g opacity="1" transform="matrix(1,0,0,1,0,0)"><path fill="rgb(225,230,245)" fill-opacity="1" d=" M-102.55699920654297,123.64099884033203 C-102.55699920654297,123.64099884033203 -113.08899688720703,95.87699890136719 -113.08899688720703,95.87699890136719 C-114.63999938964844,91.78800201416016 -112.02400207519531,75.822998046875 -107.24099731445312,60.19300079345703 C-107.24099731445312,60.19300079345703 -74.76899719238281,-45.93199920654297 -74.76899719238281,-45.93199920654297 C-69.98600006103516,-61.5620002746582 -64.85800170898438,-70.90599822998047 -63.30699920654297,-66.81700134277344 C-63.30699920654297,-66.81700134277344 -52.775001525878906,-39.053001403808594 -52.775001525878906,-39.053001403808594 C-51.2239990234375,-34.9640007019043 -53.84000015258789,-18.99799919128418 -58.62300109863281,-3.368000030517578 C-58.62300109863281,-3.368000030517578 -91.09500122070312,102.75700378417969 -91.09500122070312,102.75700378417969 C-95.87799835205078,118.38700103759766 -101.00599670410156,127.7300033569336 -102.55699920654297,123.64099884033203z"/><path stroke-linecap="round" stroke-linejoin="round" fill-opacity="0" stroke="rgb(249,248,254)" stroke-opacity="1" stroke-width="7" d=" M-102.55699920654297,123.64099884033203 C-102.55699920654297,123.64099884033203 -113.08899688720703,95.87699890136719 -113.08899688720703,95.87699890136719 C-114.63999938964844,91.78800201416016 -112.02400207519531,75.822998046875 -107.24099731445312,60.19300079345703 C-107.24099731445312,60.19300079345703 -74.76899719238281,-45.93199920654297 -74.76899719238281,-45.93199920654297 C-69.98600006103516,-61.5620002746582 -64.85800170898438,-70.90599822998047 -63.30699920654297,-66.81700134277344 C-63.30699920654297,-66.81700134277344 -52.775001525878906,-39.053001403808594 -52.775001525878906,-39.053001403808594 C-51.2239990234375,-34.9640007019043 -53.84000015258789,-18.99799919128418 -58.62300109863281,-3.368000030517578 C-58.62300109863281,-3.368000030517578 -91.09500122070312,102.75700378417969 -91.09500122070312,102.75700378417969 C-95.87799835205078,118.38700103759766 -101.00599670410156,127.7300033569336 -102.55699920654297,123.64099884033203z"/></g></g><g transform="matrix(1,0,0,1,256.5,256.5)" opacity="1" style="display: none;"><g opacity="1" transform="matrix(1,0,0,1,0,0)"><path fill="rgb(25,25,25)" fill-opacity="1" d=" M-94.04199981689453,39.84700012207031 C-93.0739974975586,42.400001525878906 -94.71700286865234,52.43199920654297 -97.7030029296875,62.189998626708984 C-100.68900299072266,71.947998046875 -103.89399719238281,77.76399993896484 -104.86199951171875,75.21099853515625 C-105.83000183105469,72.65799713134766 -104.1989974975586,62.69599914550781 -101.21299743652344,52.9379997253418 C-98.22699737548828,43.18000030517578 -95.01000213623047,37.29399871826172 -94.04199981689453,39.84700012207031z"/></g><g opacity="1" transform="matrix(1,0,0,1,0,0)"><path fill="rgb(25,25,25)" fill-opacity="1" d=" M-62.608001708984375,-17.4060001373291 C-61.63999938964844,-14.852999687194824 -63.27199935913086,-4.889999866485596 -66.25800323486328,4.868000030517578 C-69.24400329589844,14.62600040435791 -72.46099853515625,20.511999130249023 -73.42900085449219,17.958999633789062 C-74.39700317382812,15.406000137329102 -72.75299835205078,5.374000072479248 -69.76699829101562,-4.383999824523926 C-66.78099822998047,-14.142000198364258 -63.57600021362305,-19.958999633789062 -62.608001708984375,-17.4060001373291z"/></g><g opacity="1" transform="matrix(1,0,0,1,0,0)"><path fill="rgb(25,25,25)" fill-opacity="1" d=" M-85.53299713134766,24.56399917602539 C-82.5469970703125,14.805999755859375 -79.34700012207031,8.97599983215332 -78.37899780273438,11.529000282287598 C-77.41100311279297,14.081999778747559 -79.03700256347656,24.058000564575195 -82.02300262451172,33.816001892089844 C-85.00900268554688,43.57400131225586 -88.23200225830078,49.44599914550781 -89.19999694824219,46.893001556396484 C-90.16799926757812,44.34000015258789 -88.51899719238281,34.321998596191406 -85.53299713134766,24.56399917602539z"/></g></g><g transform="matrix(1,0,0,1,256,256)" opacity="1" style="display: none;"><g opacity="1" transform="matrix(1,0,0,1,0,0)"><path fill="rgb(180,182,197)" fill-opacity="1" d=" M106.7979965209961,-43.96149826049805 C106.7979965209961,-43.96149826049805 57.74150085449219,-3.756999969482422 57.74150085449219,-3.756999969482422 C50.51649856567383,2.1640000343322754 43.877498626708984,18.87350082397461 42.902000427246094,33.590999603271484 C42.902000427246094,33.590999603271484 36.27750015258789,133.51800537109375 36.27750015258789,133.51800537109375 C35.301998138427734,148.23550415039062 40.36149978637695,155.3560028076172 47.58649826049805,149.43499755859375 C47.58649826049805,149.43499755859375 96.64250183105469,109.23100280761719 96.64250183105469,109.23100280761719 C103.86750030517578,103.30999755859375 110.50650024414062,86.60099792480469 111.48200225830078,71.88349914550781 C111.48200225830078,71.88349914550781 118.10649871826172,-28.04450035095215 118.10649871826172,-28.04450035095215 C119.08200073242188,-42.762001037597656 114.02300262451172,-49.88249969482422 106.7979965209961,-43.96149826049805z"/><path stroke-linecap="round" stroke-linejoin="round" fill-opacity="0" stroke="rgb(249,248,254)" stroke-opacity="1" stroke-width="7" d=" M106.7979965209961,-43.96149826049805 C106.7979965209961,-43.96149826049805 57.74150085449219,-3.756999969482422 57.74150085449219,-3.756999969482422 C50.51649856567383,2.1640000343322754 43.877498626708984,18.87350082397461 42.902000427246094,33.590999603271484 C42.902000427246094,33.590999603271484 36.27750015258789,133.51800537109375 36.27750015258789,133.51800537109375 C35.301998138427734,148.23550415039062 40.36149978637695,155.3560028076172 47.58649826049805,149.43499755859375 C47.58649826049805,149.43499755859375 96.64250183105469,109.23100280761719 96.64250183105469,109.23100280761719 C103.86750030517578,103.30999755859375 110.50650024414062,86.60099792480469 111.48200225830078,71.88349914550781 C111.48200225830078,71.88349914550781 118.10649871826172,-28.04450035095215 118.10649871826172,-28.04450035095215 C119.08200073242188,-42.762001037597656 114.02300262451172,-49.88249969482422 106.7979965209961,-43.96149826049805z"/></g></g><g transform="matrix(1,0,0,1,256.5,256.5)" opacity="1" style="display: none;"><g opacity="1" transform="matrix(1,0,0,1,0,0)"><path fill="rgb(25,25,25)" fill-opacity="1" d=" M64.572998046875,95.94100189208984 C65.18199920654297,86.75350189208984 62.002498626708984,82.27799987792969 57.492000579833984,85.97450256347656 C52.98149871826172,89.6709976196289 48.83449935913086,100.1510009765625 48.22549819946289,109.3385009765625 C47.61650085449219,118.5260009765625 50.77399826049805,122.97000122070312 55.28450012207031,119.27349853515625 C59.79499816894531,115.5770034790039 63.9640007019043,105.12850189208984 64.572998046875,95.94100189208984z"/></g><g opacity="1" transform="matrix(1,0,0,1,0,0)"><path fill="rgb(25,25,25)" fill-opacity="1" d=" M105.26799774169922,-6.520999908447266 C105.87699890136719,-15.708499908447266 102.72000122070312,-20.152999877929688 98.20950317382812,-16.456499099731445 C93.6989974975586,-12.760000228881836 89.52999877929688,-2.311000108718872 88.9209976196289,6.876500129699707 C88.31199645996094,16.06399917602539 91.49099731445312,20.539499282836914 96.00150299072266,16.843000411987305 C100.51200103759766,13.146499633789062 104.65899658203125,2.6665000915527344 105.26799774169922,-6.520999908447266z"/></g><g opacity="1" transform="matrix(1,0,0,1,0,0)"><path fill="rgb(25,25,25)" fill-opacity="1" d=" M93.36799621582031,56.57149887084961 C88.85749816894531,60.268001556396484 84.68550109863281,70.76899719238281 84.07649993896484,79.95649719238281 C83.46749877929688,89.14399719238281 86.6500015258789,93.56749725341797 91.1604995727539,89.87100219726562 C95.6709976196289,86.17449951171875 99.81449890136719,75.74649810791016 100.42350006103516,66.55899810791016 C101.03250122070312,57.371498107910156 97.87850189208984,52.875 93.36799621582031,56.57149887084961z"/></g><g opacity="1" transform="matrix(1,0,0,1,0,0)"><path fill="rgb(25,25,25)" fill-opacity="1" d=" M62.33300018310547,12.946499824523926 C57.8224983215332,16.64299964904785 53.679500579833984,27.070499420166016 53.070499420166016,36.257999420166016 C52.46149826049805,45.445499420166016 55.6150016784668,49.94200134277344 60.1254997253418,46.24549865722656 C64.63600158691406,42.54899978637695 68.80799865722656,32.04800033569336 69.41699981689453,22.86050033569336 C70.0260009765625,13.67300033569336 66.84349822998047,9.25 62.33300018310547,12.946499824523926z"/></g><g opacity="1" transform="matrix(1,0,0,1,0,0)"><path fill="rgb(25,25,25)" fill-opacity="1" d=" M84.79100036621094,45.013999938964844 C85.4000015258789,35.826499938964844 82.24250030517578,31.381999969482422 77.73200225830078,35.07849884033203 C73.22149658203125,38.775001525878906 69.0530014038086,49.2239990234375 68.44400024414062,58.4114990234375 C67.83499908447266,67.5989990234375 71.0145034790039,72.0739974975586 75.5250015258789,68.37750244140625 C80.0354995727539,64.68099975585938 84.18199920654297,54.201499938964844 84.79100036621094,45.013999938964844z"/></g></g><g clip-path="url(#__lottie_element_359)" transform="matrix(0.6702166795730591,0.4058445990085602,-0.8116891980171204,0.33510833978652954,202.5574493408203,237.14584350585938)" opacity="1" style="display: block;"><g transform="matrix(1,0,0,1,-64,30)" opacity="1" style="display: block;"><g opacity="1" transform="matrix(1,0,0,1,83,-10.5)"><path fill="rgb(25,25,25)" fill-opacity="1" d=" M0,-18 C9.940999984741211,-18 18,-9.940999984741211 18,0 C18,9.940999984741211 9.940999984741211,18 0,18 C-9.940999984741211,18 -18,9.940999984741211 -18,0 C-18,-9.940999984741211 -9.940999984741211,-18 0,-18z"/></g></g><g transform="matrix(-0.7711025476455688,-0.6367110013961792,0.6367110013961792,-0.7711025476455688,36.07746887207031,103.475830078125)" opacity="0.25" style="display: block;"><g opacity="1" transform="matrix(1,0,0,1,0,0)"><path stroke-linecap="round" stroke-linejoin="round" fill-opacity="0" stroke="rgb(255,255,255)" stroke-opacity="1" stroke-width="12" d=" M74.46800231933594,53.060001373291016 C74.46800231933594,53.060001373291016 74.56800079345703,56.292999267578125 72.62699890136719,59.382999420166016"/></g></g></g><g clip-path="url(#__lottie_element_363)" transform="matrix(0.6702166795730591,0.4058445990085602,-0.8116891980171204,0.33510833978652954,261.56024169921875,209.6759033203125)" opacity="1" style="display: block;"><g transform="matrix(1,0,0,1,-64,30)" opacity="1" style="display: block;"><g opacity="1" transform="matrix(1,0,0,1,83,-10.5)"><path fill="rgb(25,25,25)" fill-opacity="1" d=" M0,-18 C9.940999984741211,-18 18,-9.940999984741211 18,0 C18,9.940999984741211 9.940999984741211,18 0,18 C-9.940999984741211,18 -18,9.940999984741211 -18,0 C-18,-9.940999984741211 -9.940999984741211,-18 0,-18z"/></g></g><g transform="matrix(-0.7711025476455688,-0.6367110013961792,0.6367110013961792,-0.7711025476455688,36.07746887207031,103.475830078125)" opacity="0.25" style="display: block;"><g opacity="1" transform="matrix(1,0,0,1,0,0)"><path stroke-linecap="round" stroke-linejoin="round" fill-opacity="0" stroke="rgb(255,255,255)" stroke-opacity="1" stroke-width="12" d=" M74.46800231933594,53.060001373291016 C74.46800231933594,53.060001373291016 74.56800079345703,56.292999267578125 72.62699890136719,59.382999420166016"/></g></g></g><g clip-path="url(#__lottie_element_367)" transform="matrix(0.6702166795730591,0.4058445990085602,-0.8116891980171204,0.33510833978652954,229.6846923828125,253.1798858642578)" opacity="1" style="display: block;"><g transform="matrix(1,0,0,1,-64,30)" opacity="1" style="display: block;"><g opacity="1" transform="matrix(1,0,0,1,83,-10.5)"><path fill="rgb(25,25,25)" fill-opacity="1" d=" M0,-18 C9.940999984741211,-18 18,-9.940999984741211 18,0 C18,9.940999984741211 9.940999984741211,18 0,18 C-9.940999984741211,18 -18,9.940999984741211 -18,0 C-18,-9.940999984741211 -9.940999984741211,-18 0,-18z"/></g></g><g transform="matrix(-0.7711025476455688,-0.6367110013961792,0.6367110013961792,-0.7711025476455688,36.07746887207031,103.475830078125)" opacity="0.25" style="display: block;"><g opacity="1" transform="matrix(1,0,0,1,0,0)"><path stroke-linecap="round" stroke-linejoin="round" fill-opacity="0" stroke="rgb(255,255,255)" stroke-opacity="1" stroke-width="12" d=" M74.46800231933594,53.060001373291016 C74.46800231933594,53.060001373291016 74.56800079345703,56.292999267578125 72.62699890136719,59.382999420166016"/></g></g></g><g clip-path="url(#__lottie_element_371)" transform="matrix(0.6702166795730591,0.4058445990085602,-0.8116891980171204,0.33510833978652954,290.2781677246094,224.69659423828125)" opacity="1" style="display: block;"><g transform="matrix(1,0,0,1,-64,30)" opacity="1" style="display: block;"><g opacity="1" transform="matrix(1,0,0,1,83,-10.5)"><path fill="rgb(25,25,25)" fill-opacity="1" d=" M0,-18 C9.940999984741211,-18 18,-9.940999984741211 18,0 C18,9.940999984741211 9.940999984741211,18 0,18 C-9.940999984741211,18 -18,9.940999984741211 -18,0 C-18,-9.940999984741211 -9.940999984741211,-18 0,-18z"/></g></g><g transform="matrix(-0.7711025476455688,-0.6367110013961792,0.6367110013961792,-0.7711025476455688,36.07746887207031,103.475830078125)" opacity="0.25" style="display: block;"><g opacity="1" transform="matrix(1,0,0,1,0,0)"><path stroke-linecap="round" stroke-linejoin="round" fill-opacity="0" stroke="rgb(255,255,255)" stroke-opacity="1" stroke-width="12" d=" M74.46800231933594,53.060001373291016 C74.46800231933594,53.060001373291016 74.56800079345703,56.292999267578125 72.62699890136719,59.382999420166016"/></g></g></g><g clip-path="url(#__lottie_element_375)" transform="matrix(0.6702166795730591,0.4058445990085602,-0.8116891980171204,0.33510833978652954,258.966064453125,268.1624755859375)" opacity="1" style="display: block;"><g transform="matrix(1,0,0,1,-64,30)" opacity="1" style="display: block;"><g opacity="1" transform="matrix(1,0,0,1,83,-10.5)"><path fill="rgb(25,25,25)" fill-opacity="1" d=" M0,-18 C9.940999984741211,-18 18,-9.940999984741211 18,0 C18,9.940999984741211 9.940999984741211,18 0,18 C-9.940999984741211,18 -18,9.940999984741211 -18,0 C-18,-9.940999984741211 -9.940999984741211,-18 0,-18z"/></g></g><g transform="matrix(-0.7711025476455688,-0.6367110013961792,0.6367110013961792,-0.7711025476455688,36.07746887207031,103.475830078125)" opacity="0.25" style="display: block;"><g opacity="1" transform="matrix(1,0,0,1,0,0)"><path stroke-linecap="round" stroke-linejoin="round" fill-opacity="0" stroke="rgb(255,255,255)" stroke-opacity="1" stroke-width="12" d=" M74.46800231933594,53.060001373291016 C74.46800231933594,53.060001373291016 74.56800079345703,56.292999267578125 72.62699890136719,59.382999420166016"/></g></g></g><g clip-path="url(#__lottie_element_379)" transform="matrix(0.6702166795730591,0.4058445990085602,-0.8116891980171204,0.33510833978652954,318.468505859375,240.19253540039062)" opacity="1" style="display: block;"><g transform="matrix(1,0,0,1,-64,30)" opacity="1" style="display: block;"><g opacity="1" transform="matrix(1,0,0,1,83,-10.5)"><path fill="rgb(25,25,25)" fill-opacity="1" d=" M0,-18 C9.940999984741211,-18 18,-9.940999984741211 18,0 C18,9.940999984741211 9.940999984741211,18 0,18 C-9.940999984741211,18 -18,9.940999984741211 -18,0 C-18,-9.940999984741211 -9.940999984741211,-18 0,-18z"/></g></g><g transform="matrix(-0.7711025476455688,-0.6367110013961792,0.6367110013961792,-0.7711025476455688,36.07746887207031,103.475830078125)" opacity="0.25" style="display: block;"><g opacity="1" transform="matrix(1,0,0,1,0,0)"><path stroke-linecap="round" stroke-linejoin="round" fill-opacity="0" stroke="rgb(255,255,255)" stroke-opacity="1" stroke-width="12" d=" M74.46800231933594,53.060001373291016 C74.46800231933594,53.060001373291016 74.56800079345703,56.292999267578125 72.62699890136719,59.382999420166016"/></g></g></g><g transform="matrix(1,0,0,1,256,256)" opacity="0.25" style="display: block;"><g opacity="1" transform="matrix(1,0,0,1,0,0)"><path stroke-linecap="round" stroke-linejoin="round" fill-opacity="0" stroke="rgb(255,255,255)" stroke-opacity="1" stroke-width="7" d=" M98.84700012207031,51.46099853515625 C98.84700012207031,51.46099853515625 98.5,54.75 96.55899810791016,57.84000015258789"/></g></g><g transform="matrix(1,0,0,1,256,328)" opacity="0.25" style="display: block;"><g opacity="1" transform="matrix(1,0,0,1,0,0)"><path stroke-linecap="round" stroke-linejoin="round" fill-opacity="0" stroke="rgb(255,255,255)" stroke-opacity="1" stroke-width="7" d=" M40.59700012207031,79.21099853515625 C40.59700012207031,79.21099853515625 40.5,82.5 38.558998107910156,85.58999633789062"/></g></g><g transform="matrix(1,0,0,1,285,278)" opacity="0.25" style="display: block;"><g opacity="1" transform="matrix(1,0,0,1,0,0)"><path stroke-linecap="round" stroke-linejoin="round" fill-opacity="0" stroke="rgb(255,255,255)" stroke-opacity="1" stroke-width="7" d=" M40.59700012207031,79.21099853515625 C40.59700012207031,79.21099853515625 40.5,82.5 38.558998107910156,85.58999633789062"/></g></g><g transform="matrix(1,0,0,1,256,328)" opacity="0.25" style="display: block;"><g opacity="1" transform="matrix(1,0,0,1,0,0)"><path stroke-linecap="round" stroke-linejoin="round" fill-opacity="0" stroke="rgb(255,255,255)" stroke-opacity="1" stroke-width="7" d=" M-38.71200180053711,78.71099853515625 C-38.71200180053711,78.71099853515625 -38.6150016784668,82 -36.65599822998047,85.08999633789062"/></g><g opacity="1" transform="matrix(1,0,0,1,0,0)"><path stroke-linecap="round" stroke-linejoin="round" fill-opacity="0" stroke="rgb(255,255,255)" stroke-opacity="1" stroke-width="7" d=" M-97.5,50.96099853515625 C-97.5,50.96099853515625 -97.1500015258789,54.25 -95.19100189208984,57.34000015258789"/></g></g><g transform="matrix(1,0,0,1,256,256.5)" opacity="0.25" style="display: block;"><g opacity="1" transform="matrix(1,0,0,1,0,0)"><path stroke-linecap="round" stroke-linejoin="round" fill-opacity="0" stroke="rgb(255,255,255)" stroke-opacity="1" stroke-width="7" d=" M-38.71200180053711,78.71099853515625 C-38.71200180053711,78.71099853515625 -38.6150016784668,82 -36.65599822998047,85.08999633789062"/></g><g opacity="1" transform="matrix(1,0,0,1,0,0)"><path stroke-linecap="round" stroke-linejoin="round" fill-opacity="0" stroke="rgb(255,255,255)" stroke-opacity="1" stroke-width="7" d=" M-97.5,50.96099853515625 C-97.5,50.96099853515625 -97.1500015258789,54.25 -95.19100189208984,57.34000015258789"/></g></g><g transform="matrix(1,0,0,1,227.75,279.5)" opacity="0.25" style="display: block;"><g opacity="1" transform="matrix(1,0,0,1,0,0)"><path stroke-linecap="round" stroke-linejoin="round" fill-opacity="0" stroke="rgb(255,255,255)" stroke-opacity="1" stroke-width="7" d=" M-38.71200180053711,78.71099853515625 C-38.71200180053711,78.71099853515625 -38.6150016784668,82 -36.65599822998047,85.08999633789062"/></g></g><g transform="matrix(1,0,0,1,257.5,206)" opacity="1" style="display: block;"><g opacity="1" transform="matrix(1,0,0,1,0,0)"><path stroke-linecap="round" stroke-linejoin="round" fill-opacity="0" stroke="rgb(255,255,255)" stroke-opacity="1" stroke-width="6" d=" M36.37,85.6 C33.22,87.18 30.33,88.63 27.82,89.88"/><g opacity="1" transform="matrix(1,0,0,0.5,0,23.5)"><g opacity="1" transform="matrix(0.6722941398620605,0.6712083220481873,-0.6712083220481873,0.6722941398620605,-2,47)"/></g></g></g><g transform="matrix(1,0,0,1,257.5,206)" opacity="1" style="display: block;"><g opacity="1" transform="matrix(1,0,0,1,0,0)"><path stroke-linecap="round" stroke-linejoin="round" fill-opacity="0" stroke="rgb(255,255,255)" stroke-opacity="1" stroke-width="6" d=" M18.59,94.5 C18.35,94.62 18.23,94.69 18.23,94.69 C16.9,95.35 15.47,95.94 13.97,96.44"/><g opacity="1" transform="matrix(1,0,0,0.5,0,23.5)"><g opacity="1" transform="matrix(0.6722941398620605,0.6712083220481873,-0.6712083220481873,0.6722941398620605,-2,47)"/></g></g></g></g><g clip-path="url(#__lottie_element_176)" transform="matrix(1.02329421043396,0.23530568182468414,-0.23530568182468414,1.02329421043396,135.53073120117188,132.4879150390625)" opacity="1" style="display: none;"><g transform="matrix(1,0,0,1,146,170)" opacity="1" style="display: block;"><g opacity="1" transform="matrix(1,0,0,1,0,0)"><path fill="rgb(217,222,236)" fill-opacity="1" d=" M11,-156.75 C2,-163.25 -4.382999897003174,-165.34300231933594 -15,-156 C-27.5,-145 -119,-33.5 -124.75,-27 C-129.8070068359375,-21.283000946044922 -130,-16.25 -122.25,-8.5 C-114.5,-0.75 -9.585000038146973,89.49500274658203 -1.875,93.625 C1.625,95.5 4,95.125 8.75,91.75 C13.5,88.375 112.22000122070312,-21.19300079345703 125.125,-41.625 C131.125,-51.125 128,-58.25 121.5,-63.75 C116.84100341796875,-67.69200134277344 20,-150.25 11,-156.75z"/></g></g><g transform="matrix(1,0,0,1,149,136)" opacity="1" style="display: block;"><g opacity="1" transform="matrix(1,0,0,1,0,0)"><path stroke-linecap="round" stroke-linejoin="round" fill-opacity="0" stroke="rgb(249,248,254)" stroke-opacity="1" stroke-width="11" d=" M-128,21 C-128,21 -1,128 -1,128"/></g></g><g transform="matrix(1,0,0,1,149,136)" opacity="1" style="display: block;"><g opacity="1" transform="matrix(1,0,0,1,0,0)"><path stroke-linecap="round" stroke-linejoin="round" fill-opacity="0" stroke="rgb(249,248,254)" stroke-opacity="1" stroke-width="11" d=" M-129,16 C-129,16 -125,19 -125,19"/></g></g><g transform="matrix(1,0,0,1,149,136)" opacity="1" style="display: block;"><g opacity="1" transform="matrix(1,0,0,1,0,0)"><path stroke-linecap="round" stroke-linejoin="round" fill-opacity="0" stroke="rgb(249,248,254)" stroke-opacity="1" stroke-width="11" d=" M-128,21 C-128,21 -13.5,-121.5 -13.5,-121.5"/></g></g><g transform="matrix(1,0,0,1,149,136)" opacity="1" style="display: block;"><g opacity="1" transform="matrix(1,0,0,1,0,0)"><path stroke-linecap="round" stroke-linejoin="round" fill-opacity="0" stroke="rgb(249,248,254)" stroke-opacity="1" stroke-width="11" d=" M-103,42 C-103,42 -86,29 -86,29"/></g></g><g transform="matrix(1,0,0,1,179,161)" opacity="1" style="display: block;"><g opacity="1" transform="matrix(1,0,0,1,0,0)"><path stroke-linecap="round" stroke-linejoin="round" fill-opacity="0" stroke="rgb(249,248,254)" stroke-opacity="1" stroke-width="11" d=" M-103,42 C-103,42 -93,37 -93,37"/></g></g><g transform="matrix(1,0,0,1,179,161)" opacity="1" style="display: block;"><g opacity="1" transform="matrix(1,0,0,1,0,0)"><path stroke-linecap="round" stroke-linejoin="round" fill-opacity="0" stroke="rgb(249,248,254)" stroke-opacity="1" stroke-width="11" d=" M-148,-1 C-148,-1 -138,-6 -138,-6"/></g></g><g transform="matrix(1,0,0,1,179,161)" opacity="1" style="display: block;"><g opacity="1" transform="matrix(1,0,0,1,0,0)"><path stroke-linecap="round" stroke-linejoin="round" fill-opacity="0" stroke="rgb(249,248,254)" stroke-opacity="1" stroke-width="11" d=" M-129,-43 C-129,-43 -119,-48 -119,-48"/></g></g><g transform="matrix(1,0,0,1,146,170)" opacity="1" style="display: block;"><g opacity="1" transform="matrix(1,0,0,1,0,0)"><path stroke-linecap="butt" stroke-linejoin="miter" fill-opacity="0" stroke-miterlimit="4" stroke="rgb(147,155,172)" stroke-opacity="1" stroke-width="10" d=" M11,-156.75 C2,-163.25 -4.382999897003174,-165.34300231933594 -15,-156 C-27.5,-145 -119,-33.5 -124.75,-27 C-129.8070068359375,-21.283000946044922 -130,-16.25 -122.25,-8.5 C-114.5,-0.75 -9.585000038146973,89.49500274658203 -1.875,93.625 C1.625,95.5 4,95.125 8.75,91.75 C13.5,88.375 112.22000122070312,-21.19300079345703 125.125,-41.625 C131.125,-51.125 128,-58.25 121.5,-63.75 C116.84100341796875,-67.69200134277344 20,-150.25 11,-156.75z"/></g></g></g><g clip-path="url(#__lottie_element_180)" transform="matrix(1.02329421043396,0.23530568182468414,-0.23530568182468414,1.02329421043396,135.53073120117188,132.4879150390625)" opacity="1" style="display: none;"><g transform="matrix(1,0,0,1,146,170)" opacity="1" style="display: block;"><g opacity="1" transform="matrix(1,0,0,1,0,0)"><path fill="rgb(217,222,236)" fill-opacity="1" d=" M11,-156.75 C2,-163.25 -4.382999897003174,-165.34300231933594 -15,-156 C-27.5,-145 -119,-33.5 -124.75,-27 C-129.8070068359375,-21.283000946044922 -130,-16.25 -122.25,-8.5 C-114.5,-0.75 -9.585000038146973,89.49500274658203 -1.875,93.625 C1.625,95.5 4,95.125 8.75,91.75 C13.5,88.375 112.22000122070312,-21.19300079345703 125.125,-41.625 C131.125,-51.125 128,-58.25 121.5,-63.75 C116.84100341796875,-67.69200134277344 20,-150.25 11,-156.75z"/></g></g><g transform="matrix(1,0,0,1,149,136)" opacity="1" style="display: block;"><g opacity="1" transform="matrix(1,0,0,1,0,0)"><path stroke-linecap="round" stroke-linejoin="round" fill-opacity="0" stroke="rgb(249,248,254)" stroke-opacity="1" stroke-width="11" d=" M121,-13 C121,-13 -1,128 -1,128"/></g></g><g transform="matrix(1,0,0,1,149,136)" opacity="1" style="display: block;"><g opacity="1" transform="matrix(1,0,0,1,0,0)"><path stroke-linecap="round" stroke-linejoin="round" fill-opacity="0" stroke="rgb(249,248,254)" stroke-opacity="1" stroke-width="11" d=" M-18,-113 C-18,-113 122.5,-16.75 122.5,-16.75"/></g></g><g transform="matrix(1,0,0,1,149,136)" opacity="1" style="display: block;"><g opacity="1" transform="matrix(1,0,0,1,0,0)"><path stroke-linecap="round" stroke-linejoin="round" fill-opacity="0" stroke="rgb(249,248,254)" stroke-opacity="1" stroke-width="11" d=" M121.5,-20 C121.5,-20 123.5,-19 123.5,-19"/></g></g><g transform="matrix(1,0,0,1,149,136)" opacity="1" style="display: block;"><g opacity="1" transform="matrix(1,0,0,1,0,0)"><path stroke-linecap="round" stroke-linejoin="round" fill-opacity="0" stroke="rgb(249,248,254)" stroke-opacity="1" stroke-width="11" d=" M58.5,18 C58.5,18 86.5,29 86.5,29"/></g></g><g transform="matrix(1,0,0,1,179,161)" opacity="1" style="display: block;"><g opacity="1" transform="matrix(1,0,0,1,0,0)"><path stroke-linecap="round" stroke-linejoin="round" fill-opacity="0" stroke="rgb(249,248,254)" stroke-opacity="1" stroke-width="11" d=" M4.5,39.5 C4.5,39.5 16.5,44.5 16.5,44.5"/></g></g><g transform="matrix(1,0,0,1,179,161)" opacity="1" style="display: block;"><g opacity="1" transform="matrix(1,0,0,1,0,0)"><path stroke-linecap="round" stroke-linejoin="round" fill-opacity="0" stroke="rgb(249,248,254)" stroke-opacity="1" stroke-width="11" d=" M37.5,-46.5 C37.5,-46.5 80.5,-27.5 80.5,-27.5"/></g></g><g transform="matrix(1,0,0,1,179,161)" opacity="1" style="display: block;"><g opacity="1" transform="matrix(1,0,0,1,0,0)"><path stroke-linecap="round" stroke-linejoin="round" fill-opacity="0" stroke="rgb(249,248,254)" stroke-opacity="1" stroke-width="11" d=" M79.5,-52.5 C79.5,-52.5 91.5,-47.5 91.5,-47.5"/></g></g><g transform="matrix(1,0,0,1,146,170)" opacity="1" style="display: block;"><g opacity="1" transform="matrix(1,0,0,1,0,0)"><path stroke-linecap="butt" stroke-linejoin="miter" fill-opacity="0" stroke-miterlimit="4" stroke="rgb(147,155,172)" stroke-opacity="1" stroke-width="10" d=" M11,-156.75 C2,-163.25 -4.382999897003174,-165.34300231933594 -15,-156 C-27.5,-145 -119,-33.5 -124.75,-27 C-129.8070068359375,-21.283000946044922 -130,-16.25 -122.25,-8.5 C-114.5,-0.75 -9.585000038146973,89.49500274658203 -1.875,93.625 C1.625,95.5 4,95.125 8.75,91.75 C13.5,88.375 112.22000122070312,-21.19300079345703 125.125,-41.625 C131.125,-51.125 128,-58.25 121.5,-63.75 C116.84100341796875,-67.69200134277344 20,-150.25 11,-156.75z"/></g></g></g><g clip-path="url(#__lottie_element_119)" transform="matrix(-0.9961267709732056,-0.33201107382774353,0.33201107382774353,-0.9961267709732056,359.2693786621094,328.7158203125)" opacity="1" style="display: none;"><g transform="matrix(1,0,0,1,146,170)" opacity="1" style="display: block;"><g opacity="1" transform="matrix(1,0,0,1,0,0)"><path fill="rgb(217,222,236)" fill-opacity="1" d=" M-0.041999999433755875,-159.20799255371094 C-13.75,-161.875 -45.441001892089844,-153.1719970703125 -61.20800018310547,-138.29200744628906 C-78.25,-121.25 -120.78299713134766,-12.423999786376953 -124.88300323486328,-5.011000156402588 C-128.48899841308594,1.5080000162124634 -125.48500061035156,12.668000221252441 -116.70800018310547,19.836999893188477 C-107.62799835205078,27.554000854492188 -13.041999816894531,93.24700164794922 1.75,92.95800018310547 C16.062999725341797,92 50.005001068115234,77.8489990234375 58.41699981689453,72.58300018310547 C70,65.43699645996094 119.36000061035156,-35.59700012207031 127.25,-63.41699981689453 C130.31300354003906,-75.31300354003906 126.13899993896484,-84.41999816894531 117.125,-90.875 C111.29499816894531,-95.09600067138672 26.25,-158.625 -0.041999999433755875,-159.20799255371094z"/></g></g><g transform="matrix(1,0,0,1,149,136)" opacity="1" style="display: block;"><g opacity="1" transform="matrix(1,0,0,1,0,0)"><path stroke-linecap="round" stroke-linejoin="round" fill-opacity="0" stroke="rgb(249,248,254)" stroke-opacity="1" stroke-width="11" d=" M65,-29 C65,-29 -2,123 -2,123"/></g></g><g transform="matrix(1,0,0,1,149,136)" opacity="1" style="display: block;"><g opacity="1" transform="matrix(1,0,0,1,0,0)"><path stroke-linecap="round" stroke-linejoin="round" fill-opacity="0" stroke="rgb(249,248,254)" stroke-opacity="1" stroke-width="11" d=" M-62,-98 C-62,-98 64,-29 64,-29"/></g></g><g transform="matrix(1,0,0,1,149,136)" opacity="1" style="display: block;"><g opacity="1" transform="matrix(1,0,0,1,0,0)"><path stroke-linecap="round" stroke-linejoin="round" fill-opacity="0" stroke="rgb(249,248,254)" stroke-opacity="1" stroke-width="11" d=" M63,-30 C63,-30 121.5,-43 121.5,-43"/></g></g><g transform="matrix(1,0,0,1,149,136)" opacity="1" style="display: block;"><g opacity="1" transform="matrix(1,0,0,1,0,0)"><path stroke-linecap="round" stroke-linejoin="round" fill-opacity="0" stroke="rgb(249,248,254)" stroke-opacity="1" stroke-width="11" d=" M21,11 C21,11 44,8.5 44,8.5"/></g></g><g transform="matrix(1,0,0,1,179,161)" opacity="1" style="display: block;"><g opacity="1" transform="matrix(1,0,0,1,0,0)"><path stroke-linecap="round" stroke-linejoin="round" fill-opacity="0" stroke="rgb(249,248,254)" stroke-opacity="1" stroke-width="11" d=" M-19.5,32 C-19.5,32 -6.5,32 -6.5,32"/></g></g><g transform="matrix(1,0,0,1,179,161)" opacity="1" style="display: block;"><g opacity="1" transform="matrix(1,0,0,1,0,0)"><path stroke-linecap="round" stroke-linejoin="round" fill-opacity="0" stroke="rgb(249,248,254)" stroke-opacity="1" stroke-width="11" d=" M-17.5,-46 C-17.5,-46 25.5,-42 25.5,-42"/></g></g><g transform="matrix(1,0,0,1,179,161)" opacity="1" style="display: block;"><g opacity="1" transform="matrix(1,0,0,1,0,0)"><path stroke-linecap="round" stroke-linejoin="round" fill-opacity="0" stroke="rgb(249,248,254)" stroke-opacity="1" stroke-width="11" d=" M46.5,-69 C46.5,-69 62.5,-63 62.5,-63"/></g></g><g transform="matrix(1,0,0,1,146,170)" opacity="1" style="display: block;"><g opacity="1" transform="matrix(1,0,0,1,0,0)"><path stroke-linecap="butt" stroke-linejoin="miter" fill-opacity="0" stroke-miterlimit="4" stroke="rgb(147,155,172)" stroke-opacity="1" stroke-width="10" d=" M-0.041999999433755875,-159.20799255371094 C-13.75,-161.875 -45.441001892089844,-153.1719970703125 -61.20800018310547,-138.29200744628906 C-78.25,-121.25 -120.78299713134766,-12.423999786376953 -124.88300323486328,-5.011000156402588 C-128.48899841308594,1.5080000162124634 -125.48500061035156,12.668000221252441 -116.70800018310547,19.836999893188477 C-107.62799835205078,27.554000854492188 -13.041999816894531,93.24700164794922 1.75,92.95800018310547 C16.062999725341797,92 50.005001068115234,77.8489990234375 58.41699981689453,72.58300018310547 C70,65.43699645996094 119.36000061035156,-35.59700012207031 127.25,-63.41699981689453 C130.31300354003906,-75.31300354003906 126.13899993896484,-84.41999816894531 117.125,-90.875 C111.29499816894531,-95.09600067138672 26.25,-158.625 -0.041999999433755875,-159.20799255371094z"/></g></g></g><g clip-path="url(#__lottie_element_72)" transform="matrix(0.7815271019935608,-0.701224148273468,0.701224148273468,0.7815271019935608,44.18598175048828,251.00965881347656)" opacity="1" style="display: none;"><g transform="matrix(1,0,0,1,146,170)" opacity="1" style="display: block;"><g opacity="1" transform="matrix(1,0,0,1,0,0)"><path fill="rgb(217,222,236)" fill-opacity="1" d=" M-0.041999999433755875,-159.20799255371094 C-13.75,-161.875 -45.441001892089844,-153.1719970703125 -61.20800018310547,-138.29200744628906 C-78.25,-121.25 -120.78299713134766,-12.423999786376953 -124.88300323486328,-5.011000156402588 C-128.48899841308594,1.5080000162124634 -125.48500061035156,12.668000221252441 -116.70800018310547,19.836999893188477 C-107.62799835205078,27.554000854492188 -13.041999816894531,93.24700164794922 1.75,92.95800018310547 C16.062999725341797,92 50.005001068115234,77.8489990234375 58.41699981689453,72.58300018310547 C70,65.43699645996094 119.36000061035156,-35.59700012207031 127.25,-63.41699981689453 C130.31300354003906,-75.31300354003906 126.13899993896484,-84.41999816894531 117.125,-90.875 C111.29499816894531,-95.09600067138672 26.25,-158.625 -0.041999999433755875,-159.20799255371094z"/></g></g><g transform="matrix(1,0,0,1,149,136)" opacity="1" style="display: block;"><g opacity="1" transform="matrix(1,0,0,1,0,0)"><path stroke-linecap="round" stroke-linejoin="round" fill-opacity="0" stroke="rgb(249,248,254)" stroke-opacity="1" stroke-width="11" d=" M65,-29 C65,-29 -2,123 -2,123"/></g></g><g transform="matrix(1,0,0,1,149,136)" opacity="1" style="display: block;"><g opacity="1" transform="matrix(1,0,0,1,0,0)"><path stroke-linecap="round" stroke-linejoin="round" fill-opacity="0" stroke="rgb(249,248,254)" stroke-opacity="1" stroke-width="11" d=" M-62,-98 C-62,-98 64,-29 64,-29"/></g></g><g transform="matrix(1,0,0,1,149,136)" opacity="1" style="display: block;"><g opacity="1" transform="matrix(1,0,0,1,0,0)"><path stroke-linecap="round" stroke-linejoin="round" fill-opacity="0" stroke="rgb(249,248,254)" stroke-opacity="1" stroke-width="11" d=" M63,-30 C63,-30 121.5,-43 121.5,-43"/></g></g><g transform="matrix(1,0,0,1,149,136)" opacity="1" style="display: block;"><g opacity="1" transform="matrix(1,0,0,1,0,0)"><path stroke-linecap="round" stroke-linejoin="round" fill-opacity="0" stroke="rgb(249,248,254)" stroke-opacity="1" stroke-width="11" d=" M21,11 C21,11 44,8.5 44,8.5"/></g></g><g transform="matrix(1,0,0,1,179,161)" opacity="1" style="display: block;"><g opacity="1" transform="matrix(1,0,0,1,0,0)"><path stroke-linecap="round" stroke-linejoin="round" fill-opacity="0" stroke="rgb(249,248,254)" stroke-opacity="1" stroke-width="11" d=" M-19.5,32 C-19.5,32 -6.5,32 -6.5,32"/></g></g><g transform="matrix(1,0,0,1,179,161)" opacity="1" style="display: block;"><g opacity="1" transform="matrix(1,0,0,1,0,0)"><path stroke-linecap="round" stroke-linejoin="round" fill-opacity="0" stroke="rgb(249,248,254)" stroke-opacity="1" stroke-width="11" d=" M-17.5,-46 C-17.5,-46 25.5,-42 25.5,-42"/></g></g><g transform="matrix(1,0,0,1,179,161)" opacity="1" style="display: block;"><g opacity="1" transform="matrix(1,0,0,1,0,0)"><path stroke-linecap="round" stroke-linejoin="round" fill-opacity="0" stroke="rgb(249,248,254)" stroke-opacity="1" stroke-width="11" d=" M46.5,-69 C46.5,-69 62.5,-63 62.5,-63"/></g></g><g transform="matrix(1,0,0,1,146,170)" opacity="1" style="display: block;"><g opacity="1" transform="matrix(1,0,0,1,0,0)"><path stroke-linecap="butt" stroke-linejoin="miter" fill-opacity="0" stroke-miterlimit="4" stroke="rgb(147,155,172)" stroke-opacity="1" stroke-width="10" d=" M-0.041999999433755875,-159.20799255371094 C-13.75,-161.875 -45.441001892089844,-153.1719970703125 -61.20800018310547,-138.29200744628906 C-78.25,-121.25 -120.78299713134766,-12.423999786376953 -124.88300323486328,-5.011000156402588 C-128.48899841308594,1.5080000162124634 -125.48500061035156,12.668000221252441 -116.70800018310547,19.836999893188477 C-107.62799835205078,27.554000854492188 -13.041999816894531,93.24700164794922 1.75,92.95800018310547 C16.062999725341797,92 50.005001068115234,77.8489990234375 58.41699981689453,72.58300018310547 C70,65.43699645996094 119.36000061035156,-35.59700012207031 127.25,-63.41699981689453 C130.31300354003906,-75.31300354003906 126.13899993896484,-84.41999816894531 117.125,-90.875 C111.29499816894531,-95.09600067138672 26.25,-158.625 -0.041999999433755875,-159.20799255371094z"/></g></g></g><g clip-path="url(#__lottie_element_10)" transform="matrix(1.027118444442749,-0.21800848841667175,0.21800848841667175,1.027118444442749,73.31019592285156,227.4785919189453)" opacity="1" style="display: none;"><g transform="matrix(1,0,0,1,146,170)" opacity="1" style="display: block;"><g opacity="1" transform="matrix(1,0,0,1,0,0)"><path fill="rgb(217,222,236)" fill-opacity="1" d=" M-0.041999999433755875,-159.20799255371094 C-13.75,-161.875 -45.441001892089844,-153.1719970703125 -61.20800018310547,-138.29200744628906 C-78.25,-121.25 -120.78299713134766,-12.423999786376953 -124.88300323486328,-5.011000156402588 C-128.48899841308594,1.5080000162124634 -125.48500061035156,12.668000221252441 -116.70800018310547,19.836999893188477 C-107.62799835205078,27.554000854492188 -13.041999816894531,93.24700164794922 1.75,92.95800018310547 C16.062999725341797,92 50.005001068115234,77.8489990234375 58.41699981689453,72.58300018310547 C70,65.43699645996094 119.36000061035156,-35.59700012207031 127.25,-63.41699981689453 C130.31300354003906,-75.31300354003906 126.13899993896484,-84.41999816894531 117.125,-90.875 C111.29499816894531,-95.09600067138672 26.25,-158.625 -0.041999999433755875,-159.20799255371094z"/></g></g><g transform="matrix(1,0,0,1,149,136)" opacity="1" style="display: block;"><g opacity="1" transform="matrix(1,0,0,1,0,0)"><path stroke-linecap="round" stroke-linejoin="round" fill-opacity="0" stroke="rgb(249,248,254)" stroke-opacity="1" stroke-width="11" d=" M65,-29 C65,-29 -2,123 -2,123"/></g></g><g transform="matrix(1,0,0,1,149,136)" opacity="1" style="display: block;"><g opacity="1" transform="matrix(1,0,0,1,0,0)"><path stroke-linecap="round" stroke-linejoin="round" fill-opacity="0" stroke="rgb(249,248,254)" stroke-opacity="1" stroke-width="11" d=" M-62,-98 C-62,-98 64,-29 64,-29"/></g></g><g transform="matrix(1,0,0,1,149,136)" opacity="1" style="display: block;"><g opacity="1" transform="matrix(1,0,0,1,0,0)"><path stroke-linecap="round" stroke-linejoin="round" fill-opacity="0" stroke="rgb(249,248,254)" stroke-opacity="1" stroke-width="11" d=" M63,-30 C63,-30 121.5,-43 121.5,-43"/></g></g><g transform="matrix(1,0,0,1,149,136)" opacity="1" style="display: block;"><g opacity="1" transform="matrix(1,0,0,1,0,0)"><path stroke-linecap="round" stroke-linejoin="round" fill-opacity="0" stroke="rgb(249,248,254)" stroke-opacity="1" stroke-width="11" d=" M21,11 C21,11 44,8.5 44,8.5"/></g></g><g transform="matrix(1,0,0,1,179,161)" opacity="1" style="display: block;"><g opacity="1" transform="matrix(1,0,0,1,0,0)"><path stroke-linecap="round" stroke-linejoin="round" fill-opacity="0" stroke="rgb(249,248,254)" stroke-opacity="1" stroke-width="11" d=" M-19.5,32 C-19.5,32 -6.5,32 -6.5,32"/></g></g><g transform="matrix(1,0,0,1,179,161)" opacity="1" style="display: block;"><g opacity="1" transform="matrix(1,0,0,1,0,0)"><path stroke-linecap="round" stroke-linejoin="round" fill-opacity="0" stroke="rgb(249,248,254)" stroke-opacity="1" stroke-width="11" d=" M-17.5,-46 C-17.5,-46 25.5,-42 25.5,-42"/></g></g><g transform="matrix(1,0,0,1,179,161)" opacity="1" style="display: block;"><g opacity="1" transform="matrix(1,0,0,1,0,0)"><path stroke-linecap="round" stroke-linejoin="round" fill-opacity="0" stroke="rgb(249,248,254)" stroke-opacity="1" stroke-width="11" d=" M46.5,-69 C46.5,-69 62.5,-63 62.5,-63"/></g></g><g transform="matrix(1,0,0,1,146,170)" opacity="1" style="display: block;"><g opacity="1" transform="matrix(1,0,0,1,0,0)"><path stroke-linecap="butt" stroke-linejoin="miter" fill-opacity="0" stroke-miterlimit="4" stroke="rgb(147,155,172)" stroke-opacity="1" stroke-width="10" d=" M-0.041999999433755875,-159.20799255371094 C-13.75,-161.875 -45.441001892089844,-153.1719970703125 -61.20800018310547,-138.29200744628906 C-78.25,-121.25 -120.78299713134766,-12.423999786376953 -124.88300323486328,-5.011000156402588 C-128.48899841308594,1.5080000162124634 -125.48500061035156,12.668000221252441 -116.70800018310547,19.836999893188477 C-107.62799835205078,27.554000854492188 -13.041999816894531,93.24700164794922 1.75,92.95800018310547 C16.062999725341797,92 50.005001068115234,77.8489990234375 58.41699981689453,72.58300018310547 C70,65.43699645996094 119.36000061035156,-35.59700012207031 127.25,-63.41699981689453 C130.31300354003906,-75.31300354003906 126.13899993896484,-84.41999816894531 117.125,-90.875 C111.29499816894531,-95.09600067138672 26.25,-158.625 -0.041999999433755875,-159.20799255371094z"/></g></g></g><g clip-path="url(#__lottie_element_281)" transform="matrix(0.4008041322231293,-0.9002208709716797,1.0597972869873047,0.4718520939350128,89.22881317138672,405.3221740722656)" opacity="0" style="display: none;"><g transform="matrix(-0.9934769868850708,-0.12524110078811646,-0.12507349252700806,0.9921475052833557,128.01414489746094,140.3824462890625)" opacity="1" style="display: block;"><g opacity="1" transform="matrix(1,0,0,1,0,0)"><path stroke-linecap="round" stroke-linejoin="round" fill-opacity="0" stroke="rgb(25,25,25)" stroke-opacity="1" stroke-width="12.614188591587393" d=" M88.08899688720703,-78.48799896240234 C91.3759994506836,-82.32099914550781 89.68399810791016,-87.30799865722656 81,-93.5"/></g></g><g transform="matrix(-1.0011351108551025,0.015167814679443836,0.015150241553783417,0.9999752640724182,159.74295043945312,180.91839599609375)" opacity="1" style="display: block;"><g opacity="1" transform="matrix(1,0,0,1,0,0)"><path stroke-linecap="round" stroke-linejoin="round" fill-opacity="0" stroke="rgb(25,25,25)" stroke-opacity="1" stroke-width="21.500423505743743" d=" M91.06999969482422,-70.99500274658203 C93.94999694824219,-84.6259994506836 83.43900299072266,-102.23799896240234 51.5,-124"/></g></g></g><g clip-path="url(#__lottie_element_184)" transform="matrix(-0.9705926775932312,-0.1702684909105301,0.2004508674144745,-1.1426433324813843,371.5443420410156,449.7150573730469)" opacity="1" style="display: none;"><g transform="matrix(-0.998047411441803,0.07938939332962036,0.07930455356836319,0.9969809055328369,134.17950439453125,124.52936553955078)" opacity="1" style="display: block;"><g opacity="1" transform="matrix(1,0,0,1,0,0)"><path stroke-linecap="round" stroke-linejoin="round" fill-opacity="0" stroke="rgb(25,25,25)" stroke-opacity="1" stroke-width="5" d="M0 0"/></g></g></g><g clip-path="url(#__lottie_element_188)" transform="matrix(-1.0843555927276611,-0.19022558629512787,0.2058483511209488,-1.1734110116958618,391.3453063964844,453.89324951171875)" opacity="1" style="display: none;"><g transform="matrix(-0.998047411441803,0.07938939332962036,0.07930455356836319,0.9969809055328369,134.17950439453125,124.52936553955078)" opacity="1" style="display: block;"><g opacity="1" transform="matrix(1,0,0,1,0,0)"><path stroke-linecap="round" stroke-linejoin="round" fill-opacity="0" stroke="rgb(25,25,25)" stroke-opacity="1" stroke-width="18" d=" M-93.5,16.5 C-98.70600128173828,37.744998931884766 -84.5510025024414,50.637001037597656 -62.154998779296875,57.2130012512207"/></g></g><g transform="matrix(-1.0010954141616821,0.01759652979671955,0.017576143145561218,0.9999355673789978,146.37374877929688,70.79191589355469)" opacity="1" style="display: block;"><g opacity="1" transform="matrix(1,0,0,1,0,0)"><path stroke-linecap="round" stroke-linejoin="round" fill-opacity="0" stroke="rgb(25,25,25)" stroke-opacity="1" stroke-width="9" d=" M-104.5,-14.5 C-107.4739990234375,-7.361999988555908 -106.2239990234375,-0.6690000295639038 -101.79100036621094,5.419000148773193"/></g></g><g transform="matrix(-0.9934769868850708,-0.12524110078811646,-0.12507349252700806,0.9921475052833557,128.01414489746094,140.3824462890625)" opacity="1" style="display: block;"><g opacity="1" transform="matrix(1,0,0,1,0,0)"><path stroke-linecap="round" stroke-linejoin="round" fill-opacity="0" stroke="rgb(25,25,25)" stroke-opacity="1" stroke-width="0" d="M0 0"/></g></g></g><g clip-path="url(#__lottie_element_192)" transform="matrix(-1.0843555927276611,-0.19022558629512787,0.2058483511209488,-1.1734110116958618,391.3453063964844,453.89324951171875)" opacity="1" style="display: none;"><g transform="matrix(-1.0010954141616821,0.01759652979671955,0.017576143145561218,0.9999355673789978,146.37374877929688,70.79191589355469)" opacity="1" style="display: block;"><g opacity="1" transform="matrix(1,0,0,1,0,0)"><path stroke-linecap="round" stroke-linejoin="round" fill-opacity="0" stroke="rgb(25,25,25)" stroke-opacity="1" stroke-width="12.75" d=" M85.93099975585938,25.115999221801758 C101.38500213623047,14.9399995803833 107.41100311279297,-0.7200000286102295 96.5,-23"/></g></g><g transform="matrix(-0.9934769868850708,-0.12524110078811646,-0.12507349252700806,0.9921475052833557,128.01414489746094,140.3824462890625)" opacity="1" style="display: block;"><g opacity="1" transform="matrix(1,0,0,1,0,0)"><path stroke-linecap="round" stroke-linejoin="round" fill-opacity="0" stroke="rgb(25,25,25)" stroke-opacity="1" stroke-width="17.5" d=" M18.31800079345703,-69.2239990234375 C66.61299896240234,-66.50199890136719 108.26300048828125,-74.05799865722656 81,-93.5"/></g></g><g transform="matrix(-1.0011351108551025,0.015167814679443836,0.015150241553783417,0.9999752640724182,159.74295043945312,180.91839599609375)" opacity="1" style="display: block;"><g opacity="1" transform="matrix(1,0,0,1,0,0)"><path stroke-linecap="round" stroke-linejoin="round" fill-opacity="0" stroke="rgb(25,25,25)" stroke-opacity="1" stroke-width="22.25" d=" M66.42900085449219,-47.42499923706055 C79.24500274658203,-52.99800109863281 88.31800079345703,-60.49300003051758 90.82599639892578,-69.96800231933594"/></g></g></g><g clip-path="url(#__lottie_element_123)" transform="matrix(1.0612162351608276,0.29297202825546265,-0.31703314185142517,1.1483714580535889,135.33767700195312,-15.663448333740234)" opacity="1" style="display: none;"><g transform="matrix(-0.998047411441803,0.07938939332962036,0.07930455356836319,0.9969809055328369,134.17950439453125,124.52936553955078)" opacity="1" style="display: block;"><g opacity="1" transform="matrix(1,0,0,1,0,0)"><path stroke-linecap="round" stroke-linejoin="round" fill-opacity="0" stroke="rgb(25,25,25)" stroke-opacity="1" stroke-width="9" d=" M-93.5,16.5 C-95.10900115966797,23.066999435424805 -94.86900329589844,28.834999084472656 -93.10700225830078,33.86600112915039"/></g></g><g transform="matrix(-1.0010954141616821,0.01759652979671955,0.017576143145561218,0.9999355673789978,146.37374877929688,70.79191589355469)" opacity="1" style="display: block;"><g opacity="1" transform="matrix(1,0,0,1,0,0)"><path stroke-linecap="round" stroke-linejoin="round" fill-opacity="0" stroke="rgb(25,25,25)" stroke-opacity="1" stroke-width="0" d="M0 0"/></g></g></g><g clip-path="url(#__lottie_element_127)" transform="matrix(1.0612162351608276,0.29297202825546265,-0.31703314185142517,1.1483714580535889,135.33767700195312,-15.663448333740234)" opacity="1" style="display: none;"><g transform="matrix(-0.998047411441803,0.07938939332962036,0.07930455356836319,0.9969809055328369,134.17950439453125,124.52936553955078)" opacity="1" style="display: block;"><g opacity="1" transform="matrix(1,0,0,1,0,0)"><path stroke-linecap="round" stroke-linejoin="round" fill-opacity="0" stroke="rgb(25,25,25)" stroke-opacity="1" stroke-width="12.75" d=" M61.2400016784668,49.382999420166016 C81.77400207519531,41.290000915527344 93.38999938964844,30.180999755859375 85.5,18"/></g></g><g transform="matrix(-1.0010954141616821,0.01759652979671955,0.017576143145561218,0.9999355673789978,146.37374877929688,70.79191589355469)" opacity="1" style="display: block;"><g opacity="1" transform="matrix(1,0,0,1,0,0)"><path stroke-linecap="round" stroke-linejoin="round" fill-opacity="0" stroke="rgb(25,25,25)" stroke-opacity="1" stroke-width="17.5" d=" M33.56100082397461,39.68000030517578 C80.38500213623047,36.02899932861328 116.28299713134766,17.39900016784668 96.5,-23"/></g></g><g transform="matrix(-0.9934769868850708,-0.12524110078811646,-0.12507349252700806,0.9921475052833557,128.01414489746094,140.3824462890625)" opacity="1" style="display: block;"><g opacity="1" transform="matrix(1,0,0,1,0,0)"><path stroke-linecap="round" stroke-linejoin="round" fill-opacity="0" stroke="rgb(25,25,25)" stroke-opacity="1" stroke-width="22.25" d=" M-26.57200050354004,-74.65299987792969 C-0.9440000057220459,-69.72699737548828 28.525999069213867,-67.77899932861328 51.37799835205078,-69.0790023803711"/></g></g><g transform="matrix(-1.0011351108551025,0.015167814679443836,0.015150241553783417,0.9999752640724182,159.74295043945312,180.91839599609375)" opacity="1" style="display: block;"><g opacity="1" transform="matrix(1,0,0,1,0,0)"><path stroke-linecap="round" stroke-linejoin="round" fill-opacity="0" stroke="rgb(25,25,25)" stroke-opacity="1" stroke-width="27" d=" M-17.847000122070312,-35.387001037597656 C-2.3259999752044678,-34.6609992980957 14.052000045776367,-35.38800048828125 29.273000717163086,-37.611000061035156"/></g></g></g><g clip-path="url(#__lottie_element_76)" transform="matrix(-0.7798216342926025,0.7771042585372925,-0.840925931930542,-0.8438664674758911,454.2596130371094,226.8826446533203)" opacity="1" style="display: none;"><g transform="matrix(-0.998047411441803,0.07938939332962036,0.07930455356836319,0.9969809055328369,134.17950439453125,124.52936553955078)" opacity="1" style="display: block;"><g opacity="1" transform="matrix(1,0,0,1,0,0)"><path stroke-linecap="round" stroke-linejoin="round" fill-opacity="0" stroke="rgb(25,25,25)" stroke-opacity="1" stroke-width="9" d=" M-93.5,16.5 C-95.10900115966797,23.066999435424805 -94.86900329589844,28.834999084472656 -93.10700225830078,33.86600112915039"/></g></g><g transform="matrix(-1.0010954141616821,0.01759652979671955,0.017576143145561218,0.9999355673789978,146.37374877929688,70.79191589355469)" opacity="1" style="display: block;"><g opacity="1" transform="matrix(1,0,0,1,0,0)"><path stroke-linecap="round" stroke-linejoin="round" fill-opacity="0" stroke="rgb(25,25,25)" stroke-opacity="1" stroke-width="0" d="M0 0"/></g></g></g><g clip-path="url(#__lottie_element_15)" transform="matrix(-0.7798216342926025,0.7771042585372925,-0.840925931930542,-0.8438664674758911,454.2596130371094,226.8826446533203)" opacity="1" style="display: none;"><g transform="matrix(-0.998047411441803,0.07938939332962036,0.07930455356836319,0.9969809055328369,134.17950439453125,124.52936553955078)" opacity="1" style="display: block;"><g opacity="1" transform="matrix(1,0,0,1,0,0)"><path stroke-linecap="round" stroke-linejoin="round" fill-opacity="0" stroke="rgb(25,25,25)" stroke-opacity="1" stroke-width="12.75" d=" M61.2400016784668,49.382999420166016 C81.77400207519531,41.290000915527344 93.38999938964844,30.180999755859375 85.5,18"/></g></g><g transform="matrix(-1.0010954141616821,0.01759652979671955,0.017576143145561218,0.9999355673789978,146.37374877929688,70.79191589355469)" opacity="1" style="display: block;"><g opacity="1" transform="matrix(1,0,0,1,0,0)"><path stroke-linecap="round" stroke-linejoin="round" fill-opacity="0" stroke="rgb(25,25,25)" stroke-opacity="1" stroke-width="17.5" d=" M33.56100082397461,39.68000030517578 C80.38500213623047,36.02899932861328 116.28299713134766,17.39900016784668 96.5,-23"/></g></g><g transform="matrix(-0.9934769868850708,-0.12524110078811646,-0.12507349252700806,0.9921475052833557,128.01414489746094,140.3824462890625)" opacity="1" style="display: block;"><g opacity="1" transform="matrix(1,0,0,1,0,0)"><path stroke-linecap="round" stroke-linejoin="round" fill-opacity="0" stroke="rgb(25,25,25)" stroke-opacity="1" stroke-width="22.25" d=" M-26.57200050354004,-74.65299987792969 C-0.9440000057220459,-69.72699737548828 28.525999069213867,-67.77899932861328 51.37799835205078,-69.0790023803711"/></g></g><g transform="matrix(-1.0011351108551025,0.015167814679443836,0.015150241553783417,0.9999752640724182,159.74295043945312,180.91839599609375)" opacity="1" style="display: block;"><g opacity="1" transform="matrix(1,0,0,1,0,0)"><path stroke-linecap="round" stroke-linejoin="round" fill-opacity="0" stroke="rgb(25,25,25)" stroke-opacity="1" stroke-width="27" d=" M-17.847000122070312,-35.387001037597656 C-2.3259999752044678,-34.6609992980957 14.052000045776367,-35.38800048828125 29.273000717163086,-37.611000061035156"/></g></g></g><g clip-path="url(#__lottie_element_19)" transform="matrix(-1.0634846687316895,0.2846282720565796,-0.30800414085388184,-1.150826096534729,440.77532958984375,411.0865478515625)" opacity="1" style="display: none;"><g transform="matrix(-0.998047411441803,0.07938939332962036,0.07930455356836319,0.9969809055328369,134.17950439453125,124.52936553955078)" opacity="1" style="display: block;"><g opacity="1" transform="matrix(1,0,0,1,0,0)"><path stroke-linecap="round" stroke-linejoin="round" fill-opacity="0" stroke="rgb(25,25,25)" stroke-opacity="1" stroke-width="12.75" d=" M61.2400016784668,49.382999420166016 C81.77400207519531,41.290000915527344 93.38999938964844,30.180999755859375 85.5,18"/></g></g><g transform="matrix(-1.0010954141616821,0.01759652979671955,0.017576143145561218,0.9999355673789978,146.37374877929688,70.79191589355469)" opacity="1" style="display: block;"><g opacity="1" transform="matrix(1,0,0,1,0,0)"><path stroke-linecap="round" stroke-linejoin="round" fill-opacity="0" stroke="rgb(25,25,25)" stroke-opacity="1" stroke-width="17.5" d=" M33.56100082397461,39.68000030517578 C80.38500213623047,36.02899932861328 116.28299713134766,17.39900016784668 96.5,-23"/></g></g><g transform="matrix(-0.9934769868850708,-0.12524110078811646,-0.12507349252700806,0.9921475052833557,128.01414489746094,140.3824462890625)" opacity="1" style="display: block;"><g opacity="1" transform="matrix(1,0,0,1,0,0)"><path stroke-linecap="round" stroke-linejoin="round" fill-opacity="0" stroke="rgb(25,25,25)" stroke-opacity="1" stroke-width="22.25" d=" M-26.57200050354004,-74.65299987792969 C-0.9440000057220459,-69.72699737548828 28.525999069213867,-67.77899932861328 51.37799835205078,-69.0790023803711"/></g></g><g transform="matrix(-1.0011351108551025,0.015167814679443836,0.015150241553783417,0.9999752640724182,159.74295043945312,180.91839599609375)" opacity="1" style="display: block;"><g opacity="1" transform="matrix(1,0,0,1,0,0)"><path stroke-linecap="round" stroke-linejoin="round" fill-opacity="0" stroke="rgb(25,25,25)" stroke-opacity="1" stroke-width="27" d=" M-17.847000122070312,-35.387001037597656 C-2.3259999752044678,-34.6609992980957 14.052000045776367,-35.38800048828125 29.273000717163086,-37.611000061035156"/></g></g></g><g transform="matrix(1.0499999523162842,0,0,1.0499999523162842,256,266)" opacity="1" style="display: block;"><path stroke-linecap="round" stroke-linejoin="round" fill-opacity="0" stroke="rgb(147,155,172)" stroke-opacity="1" stroke-width="10" d=" M-0.4,-58.22 C-5.21,-57.96 -10.36,-56.6 -15.19,-54.91 C-20.01,-53.22 -24.53,-51.2 -28.07,-49.6 C-31.93,-47.87 -48.45,-39.89 -65.86,-31 C-83.26,-22.11 -101.56,-12.31 -108.99,-6.93 C-117.74,-0.59 -121.06,8.89 -122.22,18.66 C-123.37,28.43 -122.37,38.49 -122.5,45.98 C-122.58,51.26 -123.59,70.35 -123.86,89.95 C-124.12,109.55 -123.66,129.68 -120.8,137.03 C-117.79,144.81 -112.88,150.58 -106.89,155.3 C-100.91,160.03 -93.86,163.72 -86.57,167.32 C-79.6,170.77 -62.48,180.07 -44.59,188.42 C-26.7,196.76 -8.03,204.14 2.03,203.74 C10.99,203.38 21.84,199.95 28.88,196.66 C50.52,186.58 71.19,175.57 92.22,165 C106.69,157.72 117.81,148.82 122.03,131.47 C126.13,114.6 128.7,28.64 123.37,12.52 C118.13,-3.36 102.64,-12.98 87.93,-20.37 C73.95,-27.4 20.52,-59.34 -0.4,-58.22z"/><g opacity="1" transform="matrix(0.11599999666213989,0,0,0.11599999666213989,0,28)"/></g><g transform="matrix(1,0,0,1,284,214)" opacity="0.7000000000000001" style="display: block;"><g opacity="1" transform="matrix(1,0,0,1,0,0)"><path stroke-linecap="butt" stroke-linejoin="miter" fill-opacity="0" stroke-miterlimit="4" stroke="rgb(255,255,255)" stroke-opacity="1" stroke-width="0" d=" M-26,-120.22 C64.7,-120.22 138.22,-46.7 138.22,44 C138.22,134.7 64.7,208.22 -26,208.22 C-116.7,208.22 -190.22,134.7 -190.22,44 C-190.22,-46.7 -116.7,-120.22 -26,-120.22z"/><g opacity="1" transform="matrix(1.190000057220459,0,0,1.190000057220459,-26,44)"/></g></g></g></svg>